<?xml version="1.0" standalone="no"?>
<!DOCTYPE svg PUBLIC "-//W3C//DTD SVG 1.1//EN" "http://www.w3.org/Graphics/SVG/1.1/DTD/svg11.dtd" >
<!--
2013-9-30: Created.
-->
<svg>
<metadata>
Created by iconfont
</metadata>
<defs>

<font id="iconfont" horiz-adv-x="1024" >
  <font-face
    font-family="iconfont"
    font-weight="500"
    font-stretch="normal"
    units-per-em="1024"
    ascent="896"
    descent="-128"
  />
    <missing-glyph />
    
    <glyph glyph-name="x" unicode="x" horiz-adv-x="1001"
d="M281 543q-27 -1 -53 -1h-83q-18 0 -36.5 -6t-32.5 -18.5t-23 -32t-9 -45.5v-76h912v41q0 16 -0.5 30t-0.5 18q0 13 -5 29t-17 29.5t-31.5 22.5t-49.5 9h-133v-97h-438v97zM955 310v-52q0 -23 0.5 -52t0.5 -58t-10.5 -47.5t-26 -30t-33 -16t-31.5 -4.5q-14 -1 -29.5 -0.5
t-29.5 0.5h-32l-45 128h-439l-44 -128h-29h-34q-20 0 -45 1q-25 0 -41 9.5t-25.5 23t-13.5 29.5t-4 30v167h911zM163 247q-12 0 -21 -8.5t-9 -21.5t9 -21.5t21 -8.5q13 0 22 8.5t9 21.5t-9 21.5t-22 8.5zM316 123q-8 -26 -14 -48q-5 -19 -10.5 -37t-7.5 -25t-3 -15t1 -14.5
t9.5 -10.5t21.5 -4h37h67h81h80h64h36q23 0 34 12t2 38q-5 13 -9.5 30.5t-9.5 34.5q-5 19 -11 39h-368zM336 498v228q0 11 2.5 23t10 21.5t20.5 15.5t34 6h188q31 0 51.5 -14.5t20.5 -52.5v-227h-327z" />
    

    
    <glyph glyph-name="zuanshi" unicode="&#58883;" d="M67.296 414.336l428.736-532.128-171.936 532.128h-256.8zM370.688 414.336l151.84-533.216 130.656 533.216h-282.496zM545.632-117.792l412.736 532.128h-254.816l-157.92-532.128zM959.328 449.152l-123.744 211.584-123.808-211.584h247.552zM796.672 672.864h-247.552l123.744-218.848 123.808 218.848zM634.816 449.152l-123.744 211.584-123.776-211.584h247.52zM474.848 672.864h-247.52l123.776-218.848 123.744 218.848zM188.448 660.736l-123.744-211.584h247.52l-123.776 211.584z"  horiz-adv-x="1024" />

    
    <glyph glyph-name="unie650" unicode="&#58971;" d="M-90.549 890.549v0 0zM921.546 413.933q29.412 0 50.011-19.997t20.601-49.446v-488.403q0-28.245-20.601-48.844t-50.011-20.601h-813.214q-14.122 0-27.077 5.31t-22.37 14.725-14.725 22.37-5.31 27.077v488.403q0 29.412 19.997 49.446t49.446 19.997h69.444q25.909-37.66 66.507-96.522t122.995-166.53 112.978-130.037q23.537-15.29 35.889-15.892t33.554 15.892q29.412 24.705 105.333 122.995t137.117 184.191l60.028 85.901h69.444zM548.492 111.453q-3.539-4.708-7.081-8.247t-7.645-7.081-8.812-5.31-9.415-1.77q-16.494 0-32.953 21.202-12.955 17.662-50.614 64.134t-64.134 81.796-57.091 81.193-46.471 86.505-15.892 73.548q0 109.438 78.256 187.694t188.899 78.256q71.779 0 133.578-35.889t97.689-97.086 35.889-132.976q0-32.953-16.494-73.548t-47.074-86.505-56.489-81.193-63.569-81.796-50.614-62.966v0zM515.539 674.009q-71.779 0-121.79-50.011t-50.011-121.226 50.011-121.226 121.79-50.011q45.907 0 85.337 22.934t62.364 62.364 22.934 86.505q0 34.118-13.52 65.904t-36.492 54.719-54.719 36.492-65.904 13.52z"  horiz-adv-x="1024" />

    
    <glyph glyph-name="diannao" unicode="&#58891;" d="M947.648 753.824 76.352 753.824c-40.128 0-72.64-32.512-72.64-72.64l0-617.216c0-40.128 32.512-72.64 72.64-72.64L411.52-8.672c-57.472-31.68-99.2-72.64-99.2-72.64-30.08 0-54.464-16.256-54.464-36.288 0-20.032 24.384-36.288 54.464-36.288l435.648 0c30.08 0 54.464 16.256 54.464 36.288 0 20.032-24.384 36.288-54.464 36.288 0 0-40.576 40.896-96.832 72.64l296.512 0c40.128 0 72.64 32.512 72.64 72.64L1020.288 681.184C1020.288 721.312 987.776 753.824 947.648 753.824zM947.648 281.824c0-40.128-32.512-72.64-72.64-72.64L148.928 209.184c-40.128 0-72.64 32.512-72.64 72.64L76.288 608.608c0 40.128 32.512 72.64 72.64 72.64l726.144 0c40.128 0 72.64-32.512 72.64-72.64L947.712 281.824z"  horiz-adv-x="1024" />

    
    <glyph glyph-name="jiudian" unicode="&#58906;" d="M751.048416 812l496.761366-159.227003L1247.809782-200.65435 751.048416-200.65435 751.048416 731.059417l-182.066475-94.415017 0-144.912464-72.17501 0L496.806931 657.308142l0 20.689372 18.157665 10.499892L751.048416 812 751.048416 812zM275.622876 463.369128 275.622876-200.65435l364.235472 0 0 625.736036-364.235472 116.741883L97.766895 459.575839l-18.204654-10.474262 0-20.686524 0-199.909457L9.266788 149.759254 0 139.331981l0-13.54563 0-337.786395 72.184977 0L72.184977 112.247842l70.296876 78.720712 9.313777 10.457175 0 13.515728L151.795631 407.725681 275.622876 463.369128 275.622876 463.369128zM335.398502 441.638879c20.572612-5.405152 40.614106-10.690696 60.111668-15.808218 0-29.111783 0-58.159491 0-87.247068-19.497562 3.864484-39.54048 7.850001-60.111668 11.950853C335.398502 380.90354 335.398502 411.249851 335.398502 441.638879L335.398502 441.638879zM546.19373 147.902479c0.046989-25.804047 0.046989-51.608094 0.046989-77.397902 14.925396 0 29.513325 0 43.796539 0 0 24.822975 0 49.681547 0 74.574294C575.754044 145.997291 561.166114 146.935646 546.19373 147.902479L546.19373 147.902479zM449.007789 154.18191c0-27.91143 0-55.81574 0-83.677333 17.479885 0 34.472794 0 50.981575 0 0 26.750945 0 53.573086 0 80.390955C483.480583 151.956343 466.487674 153.042784 449.007789 154.18191L449.007789 154.18191zM335.398502 161.516456c20.572612-1.325658 40.614106-2.629957 60.111668-3.884419 0-29.069066 0-58.109654 0-87.12746-19.497562 0-39.54048 0-60.111668 0C335.398502 100.802476 335.398502 131.151634 335.398502 161.516456L335.398502 161.516456zM546.19373 266.962483c0-25.828253 0-51.633724 0-77.442043 14.972385-1.496527 29.560314-2.94464 43.843528-4.345765 0 24.865692 0 49.727112 0 74.595652C575.754044 262.111231 561.166114 264.500547 546.19373 266.962483L546.19373 266.962483zM449.007789 282.897429c0-27.91143 0-55.814316 0-83.747104 17.479885-1.734319 34.472794-3.421649 50.981575-5.067686 0 26.822141 0 53.64001 0 80.433672C483.480583 277.247365 466.487674 280.023984 449.007789 282.897429L449.007789 282.897429zM335.398502 301.502201c20.572612-3.378932 40.614106-6.65819 60.111668-9.842047 0-29.064795 0-58.135285 0-87.200079-19.497562 1.93509-39.54048 3.93568-60.111668 5.963324C335.398502 240.792492 335.398502 271.167281 335.398502 301.502201L335.398502 301.502201zM546.19373 386.140671c0-25.85246 0-51.683561 0-77.487608 14.972385-2.967423 29.560314-5.866498 43.843528-8.69153 0 24.862844 0 49.754167 0 74.639794C575.754044 378.346203 561.166114 382.209263 546.19373 386.140671L546.19373 386.140671zM449.007789 411.728284c0-27.927093 0-55.855609 0-83.764191 17.479885-3.475758 34.472794-6.858961 50.981575-10.13822 0 26.816445 0 53.612955 0 80.482085C483.480583 402.652299 466.487674 407.12052 449.007789 411.728284L449.007789 411.728284zM832.545747 675.367557c0-41.44994 0-82.85289 0-124.271504 28.048125-5.551814 55.382872-11.013922 81.982883-16.273836 0 39.641578 0 79.277459 0 118.963178C887.928619 660.786747 860.595296 667.983174 832.545747 675.367557L832.545747 675.367557zM1120.059673 274.732745c0.049837-35.197563 0.049837-70.419332 0.049837-105.535733 20.368993 0 40.263825 0 59.724365 0 0 33.842003 0 67.780832 0 101.701151C1160.374758 272.151201 1140.478503 273.431293 1120.059673 274.732745L1120.059673 274.732745zM987.47255 283.303242c0-38.069584 0-76.134896 0-114.107654 23.85187 0 47.02596 0 69.572108 0 0 36.47196 0 73.047865 0 109.616651C1034.451522 280.285983 1011.32442 281.758303 987.47255 283.303242L987.47255 283.303242zM832.545747 293.321854c0-41.424309 0-82.82726 0-124.126266 28.048125 0 55.382872 0 81.982883 0 0 39.539056 0 79.174938 0 118.815092C887.928619 289.725064 860.595296 291.490709 832.545747 293.321854L832.545747 293.321854zM1120.059673 437.129365c0-35.221769 0-70.417909 0-105.639678 20.41883-2.027644 40.315086-4.009723 59.774202-5.916335 0 33.89184 0 67.836365 0 101.776618C1160.374758 430.512468 1140.428666 433.771792 1120.059673 437.129365L1120.059673 437.129365zM987.47255 458.852494c0-38.069584 0-76.140592 0-114.208752 23.85187-2.36511 46.978972-4.657601 69.572108-6.900254 0 36.568786 0 73.144691 0 109.713477C1034.451522 451.127797 1011.32442 454.945293 987.47255 458.852494L987.47255 458.852494zM832.545747 484.245032c0-41.395831 0-82.821565 0-124.223091 28.048125-2.775195 55.382872-5.501978 81.982883-8.131934 0 39.634458 0 79.276036 0 118.911917C887.928619 475.174743 860.595296 479.635844 832.545747 484.245032L832.545747 484.245032zM1120.059673 599.662681c0-35.244552 0-70.466321 0-105.688091 20.368993-4.051016 40.263825-7.98812 59.774202-11.85118 0 33.920318 0 67.859147 0 101.797976C1160.324922 589.043181 1140.428666 594.305942 1120.059673 599.662681L1120.059673 599.662681zM987.47255 634.569767c0-38.117997 0-76.187581 0-114.255741 23.85187-4.73022 46.978972-9.343679 69.572108-13.807628 0 36.568786 0 73.121908 0 109.739107C1034.451522 622.184622 1011.32442 628.293184 987.47255 634.569767z"  horiz-adv-x="1248" />

    
    <glyph glyph-name="zhengque" unicode="&#58938;" d="M925.993361 457.619854c-24.183795 57.178257-58.800197 108.522646-102.884228 152.6077s-95.427396 78.700433-152.606677 102.885252C611.286796 738.158225 548.403606 750.857455 483.64572 750.857455c-64.803935 0-127.688147-12.69923-186.902784-37.744649-57.17928-24.184819-108.523669-58.800197-152.608723-102.885252-44.085054-44.085054-78.700433-95.42842-102.885252-152.6077C16.202519 398.404194 3.503289 335.521005 3.503289 270.689441c0-64.803935 12.69923-127.687124 37.745672-186.902784 24.184819-57.17928 58.800197-108.523669 102.885252-152.608723 44.085054-44.084031 95.429443-78.69941 152.608723-102.884228 59.21566-25.046443 122.098849-37.745672 186.902784-37.745672 64.757886 0 127.641075 12.69923 186.857758 37.745672 57.17928 24.184819 108.522646 58.800197 152.606677 102.885252 44.084031 44.084031 78.700433 95.42842 102.884228 152.6077 25.047466 59.21566 37.746696 122.098849 37.746696 186.902784C963.740056 335.521005 951.040826 398.403171 925.993361 457.619854zM483.64572-143.294199c-228.271984 0-413.985686 185.711655-413.985686 413.984662 0 228.29859 185.713702 414.011268 413.985686 414.011268 228.224912 0 413.93759-185.712679 413.93759-414.011268C897.583311 42.417457 711.870632-143.294199 483.64572-143.294199zM406.84045 70.616706c-7.819083 0-15.640212 2.968611-21.627577 8.912997L260.421706 203.415244c-12.032034 11.945053-12.103666 31.382754-0.158612 43.414789 11.9471 12.032034 31.383778 12.101619 43.414789 0.157589l124.791168-123.885542c12.032034-11.945053 12.103666-31.382754 0.158612-43.414789C422.625972 73.642622 414.734234 70.616706 406.84045 70.616706zM414.626787 63.236622c-7.918343 0-15.833617 3.045359-21.839401 9.122775-11.916401 12.060687-11.79872 31.498388 0.261966 43.414789l270.745331 267.497357c12.060687 11.916401 31.498388 11.799744 43.414789-0.261966 11.916401-12.060687 11.79872-31.498388-0.261966-43.414789L436.202175 72.09743C430.218904 66.186813 422.42131 63.236622 414.626787 63.236622z"  horiz-adv-x="1024" />

    
    <glyph glyph-name="185078emailmailstreamline" unicode="&#58947;" d="M938.666667 42.666667 85.333333 42.666667c-47.061333 0-85.333333 38.272-85.333333 85.333333L0 640c0 47.061333 38.272 85.333333 85.333333 85.333333l853.333333 0c47.061333 0 85.333333-38.272 85.333333-85.333333l0-512C1024 80.938667 985.728 42.666667 938.666667 42.666667zM85.333333 682.666667c-23.530667 0-42.666667-19.136-42.666667-42.666667l0-512c0-23.530667 19.136-42.666667 42.666667-42.666667l853.333333 0c23.530667 0 42.666667 19.136 42.666667 42.666667L981.333333 640c0 23.530667-19.136 42.666667-42.666667 42.666667L85.333333 682.666667zM512 273.258667 137.749333 515.413333c-9.898667 6.421333-12.736 19.605333-6.336 29.504s19.605333 12.714667 29.504 6.336L512 324.074667 863.082667 551.253333c9.898667 6.378667 23.104 3.562667 29.504-6.336s3.562667-23.082667-6.336-29.504L512 273.258667zM128.021333 170.666667c-6.890667 0-13.674667 3.328-17.770667 9.493333-6.549333 9.813333-3.904 23.04 5.909333 29.589333l192 128c9.813333 6.549333 23.061333 3.904 29.589333-5.909333 6.549333-9.813333 3.904-23.04-5.909333-29.589333l-192-128C136.192 171.84 132.074667 170.666667 128.021333 170.666667zM895.978667 170.666667c-4.053333 0-8.170667 1.173333-11.818667 3.584l-192 128c-9.813333 6.549333-12.458667 19.776-5.909333 29.589333 6.528 9.813333 19.754667 12.458667 29.589333 5.909333l192-128c9.813333-6.549333 12.458667-19.776 5.909333-29.589333C909.653333 173.994667 902.869333 170.666667 895.978667 170.666667z"  horiz-adv-x="1024" />

    
    <glyph glyph-name="ditu" unicode="&#59008;" d="M590.268 213.461c0 106.581 125.539 255.231 125.539 328.271 0 79.495-64.449 143.973-143.975 143.973-79.523 0-143.977-64.48-143.977-143.973 0-79.526 125.543-221.312 125.543-328.271L590.268 213.461zM508.552 541.733c0 34.94 28.339 63.279 63.28 63.279 34.943 0 63.281-28.34 63.281-63.279 0-34.944-28.338-63.284-63.281-63.284C536.891 478.449 508.552 506.789 508.552 541.733zM746.982 611.964c7.566-18.816 12.096-39.119 13.207-60.33l80.896 40.465 0-554.285L719.49-22.98l-35.875 15.369C658.568 131.896 576.709 156.898 512 156.898c-16.247 0-28.954-18.875-59.833-1.49-52.152 29.359-35.409 109.969-119.667 114.674-49.88 49.881-113.027 59.827-149.585 60.928L182.915 598.175l126.006-53.991c7.54-3.243 15.572-4.849 23.579-4.849 9.173 0 18.349 2.104 26.76 6.31l24.539 12.272c2.488 28.952 11.541 55.947 25.656 79.729l-76.956-38.477-209.42 89.752 0-359.006L123.079 0.83l209.42-89.752 179.5 89.752 178.714-76.602c0 0.004-0.006 0.01-0.006 0.012l30.709-13.16 179.506 89.752L900.922 688.92 746.982 611.964z"  horiz-adv-x="1024" />

    
    <glyph glyph-name="love" unicode="&#58911;" d="M576.064-212c-9.472 0-18.944 2.752-27.136 8.32l-6.528 4.288c-0.576 0.32-1.152 0.64-1.6 0.96-1.024 0.704-6.016 4.096-6.912 4.736l-20.416 14.464c-141.76 97.856-249.344 186.88-338.176 279.808-52.608 54.912-105.856 116.672-139.392 195.84-49.344 116.224-47.744 225.92 4.736 325.952 34.368 65.472 83.008 115.072 144.64 147.392C187.392 770.848 262.464 812 356.224 812c50.752 0 97.856-11.84 140.032-35.2l47.936-30.336c11.392-8.064 21.888-16.448 31.872-25.28C585.92 730.08 596.48 738.528 607.872 746.656l48.64 30.656C697.856 800.16 745.024 812 795.776 812c93.824 0 168.896-41.152 172.032-42.816 60.544-31.808 109.248-81.408 143.616-146.88 52.544-99.968 54.144-209.664 4.736-325.952-33.536-79.04-86.72-140.8-139.328-195.84-89.024-92.928-196.544-182.016-338.56-280.064l-16.32-11.52c-0.768-0.512-9.92-6.912-10.688-7.424-0.448-0.32-1.088-0.64-1.536-0.96l-6.464-4.224C595.008-209.248 585.472-212 576.064-212M356.224 715.808c-67.904 0-124.416-30.4-124.992-30.72C185.92 661.28 151.936 626.336 126.464 577.76c-39.04-74.368-39.488-154.24-1.344-244.032 27.52-64.832 74.112-118.528 120.32-166.912 84.224-88.064 187.072-172.992 323.584-267.328L576-105.44l6.72 4.672c136.832 94.592 239.616 179.52 323.904 267.584 46.272 48.448 92.8 102.208 120.384 166.912 38.144 89.856 37.696 169.728-1.344 244.032-25.408 48.512-59.52 83.456-104 106.88-1.344 0.704-57.984 31.104-125.824 31.104-34.112 0-65.408-7.744-92.992-22.976l-38.528-24.512C649.344 657.76 636.8 646.88 625.728 634.976L612.032 619.808C602.944 609.632 589.824 603.872 576.064 603.872c-13.76 0-26.816 5.824-36.032 15.936L525.76 635.488c-10.688 11.456-23.168 22.336-37.824 32.64L450.048 692.32C421.568 708 390.4 715.808 356.224 715.808"  horiz-adv-x="1153" />

    
    <glyph glyph-name="zhusu" unicode="&#58904;" d="M195.047619 178.095238 195.047619 714.278433C195.047619 768.327575 151.384722 812 97.52381 812 43.772493 812 0 768.248564 0 714.278433L0-114.278432C0-168.327575 43.662897-212 97.52381-212 151.275126-212 195.047619-168.248564 195.047619-114.278432L195.047619-16.952381 1267.809524-16.952381 1267.809524-114.372384C1267.809524-168.381806 1311.472421-212 1365.333333-212 1419.084649-212 1462.857143-168.290628 1462.857143-114.372384L1462.857143 470.56286C1462.857143 524.572282 1419.194246 568.190476 1365.333333 568.190476 1311.582018 568.190476 1267.809524 524.481104 1267.809524 470.56286L1267.809524 178.095238 195.047619 178.095238 195.047619 178.095238ZM390.095238 226.857143C457.421378 226.857143 512 281.435765 512 348.761905 512 416.088044 457.421378 470.666667 390.095238 470.666667 322.769098 470.666667 268.190476 416.088044 268.190476 348.761905 268.190476 281.435765 322.769098 226.857143 390.095238 226.857143ZM560.761905 348.761905C560.761905 402.622818 604.332746 446.285714 658.420304 446.285714L1097.008267 446.285714C1150.943512 446.285714 1194.666667 402.51322 1194.666667 348.761905 1194.666667 294.900992 1151.095825 251.238095 1097.008267 251.238095L658.420304 251.238095C604.485059 251.238095 560.761905 295.010589 560.761905 348.761905Z"  horiz-adv-x="1463" />

    
    <glyph glyph-name="jingdian" unicode="&#58885;" d="M558.102503-100.667356l-5.290493 21.463848c0 0-60.115146 197.139939-135.841851 352.351953 53.428863 149.441591 126.617769 348.285335 148.303674 378.018519C600.602456 699.609257 700.550819 777.957673 788.605294 512.392318 898.780579 180.238382 957.981912-100.667356 957.981912-100.667356L558.102503-100.667356zM720.266859 553.142417c-35.895535 88.054475-67.814502 112.976074-102.047164 92.908016-34.234709-20.111037-86.349647-224.90326-86.349647-224.90326s30.999015 25.838482 58.368362 27.937283c27.371394 2.098801 65.057715-48.792263 65.057715-48.792263s21.596877 62.914912 47.176462 60.510142c25.618471-2.362814 68.425416-34.103726 68.425416-34.103726S756.160347 465.087942 720.266859 553.142417zM506.294556-100.667356l-440.277492 1.834788c0 0 94.178963 237.581 122.638131 318.16227 28.463262 80.577177 83.245959 206.232015 157.749814 90.065272 74.457806-116.170836 142.401244-338.932316 142.401244-338.932316L506.294556-100.667356zM327.909773 236.595948c-19.411095 47.003524-36.552497 60.248176-54.828746 49.408293-18.276249-10.844999-45.645596-120.585379-45.645596-120.585379s16.529465 13.902638 31.172977 15.130605c14.606673 1.175779 34.935674-25.929556 34.935674-25.929556s11.368932 33.706683 25.053606 32.484855c13.726629-1.181919 36.72339-18.013259 36.72339-18.013259S347.321892 189.554562 327.909773 236.595948z"  horiz-adv-x="1024" />

    
    <glyph glyph-name="ditie" unicode="&#59005;" d="M877.910249-147.269743 754.967172-147.269743l-25.734104 58.134025L288.926924-89.135718l-25.733081-58.134025L140.250766-147.269743l125.801171 182.031846c-24.780383 6.989181-45.110407 20.967544-60.993143 41.936111-15.885805 20.965497-23.828708 45.109384-23.828708 72.430636L181.230086 566.567171c0 16.516162 4.2897 32.244378 12.867052 47.174416 8.578376 14.929014 19.063171 28.593222 31.451316 40.97932 12.391215 12.390191 25.098631 23.031553 38.119179 31.930223 13.027711 8.893554 24.303522 15.564487 33.838689 20.014846 9.529027 4.444219 20.013823 9.208732 31.448246 14.293541 11.438517 5.084808 25.096585 9.529027 40.97932 13.343913 15.885805 3.812839 34.313503 6.985088 55.280024 9.529027 20.964474 2.541893 45.427632 3.813862 73.383334 3.813862 31.766494 0 59.72322-1.432629 83.866083-4.2897 24.146956-2.858094 45.27209-6.671956 63.380516-11.43647 18.107403-4.76349 33.992185-10.165524 47.650253-16.19996 13.663184-6.03546 26.209942-12.232602 37.646412-18.587334 11.435447-6.352685 23.50739-13.658068 36.213783-21.921265 12.712533-8.257058 24.149003-17.627473 34.31248-28.112268 10.165524-10.484795 18.583241-22.397103 25.255197-35.738969 6.671956-13.343913 10.008958-28.27702 10.008958-44.792159l0-417.437298c0-27.321252-8.103562-51.465139-24.303522-72.430636-16.19996-20.968567-36.693714-34.94693-61.473073-41.936111L877.910249-147.269743zM419.493631 685.694339c-8.259104 0-15.246239-2.857071-20.966521-8.577353-5.720282-5.715165-8.578376-13.022595-8.578376-21.916149 0-8.263198 2.858094-15.251356 8.578376-20.970614 5.720282-5.715165 12.707416-8.578376 20.966521-8.578376l181.081195 0c8.258081 0 15.244192 2.862187 20.964474 8.578376 5.720282 5.719258 8.579399 12.707416 8.579399 20.970614 0 8.893554-2.859118 16.19996-8.579399 21.916149-5.720282 5.719258-12.706393 8.577353-20.964474 8.577353L419.493631 685.694339 419.493631 685.694339zM240.320902 387.389326l536.568559 0L776.889461 566.567171 240.320902 566.567171 240.320902 387.389326 240.320902 387.389326zM270.820544 77.647843c11.434423 0 21.278629 4.131087 29.54285 12.391215 8.257058 8.260128 12.387122 18.10945 12.387122 29.543873 0 12.07399-4.130064 22.23542-12.387122 30.500665-8.264221 8.256034-18.108426 12.385075-29.54285 12.385075-12.072967 0-22.24156-4.128017-30.500665-12.385075-8.257058-8.264221-12.390191-18.426675-12.390191-30.500665 0-11.434423 4.134157-21.283746 12.390191-29.543873C248.578983 81.77893 258.747577 77.647843 270.820544 77.647843L270.820544 77.647843zM701.596637-30.042855l-26.684756 60.043514L343.250156 30.00066l-27.636431-60.043514L701.596637-30.042855 701.596637-30.042855zM704.453708 119.582931c0-11.434423 4.129041-21.283746 12.392238-29.543873 8.257058-8.260128 18.422581-12.391215 30.499641-12.391215 12.07092 0 22.23542 4.131087 30.493501 12.391215 8.263198 8.260128 12.391215 18.10945 12.391215 29.543873 0 12.07399-4.128017 22.23542-12.391215 30.500665-8.257058 8.256034-18.422581 12.385075-30.493501 12.385075-12.07706 0-22.24156-4.128017-30.499641-12.385075C708.582749 141.819374 704.453708 131.656921 704.453708 119.582931L704.453708 119.582931zM704.453708 119.582931"  horiz-adv-x="1024" />

    
    <glyph glyph-name="iconfonticon6" unicode="&#58929;" d="M933.4461 252.137787c-18.783809 108.945271-97.673553 180.322925-97.673553 180.322925 11.268648 98.920964-30.055526 116.461455-30.055526 116.461455C797.015847 854.972585 533.382495 849.61353 527.847431 849.468221c-5.542226 0.145309-269.211395 5.504364-277.872658-300.5481 0 0-41.325198-17.539468-30.054503-116.461455 0 0-78.894861-71.377654-97.676623-180.322925 0 0-10.033517-184.082552 90.159416-22.543436 0 0 22.544459-61.344137 63.86761-116.455315 0 0-73.897034-25.061792-67.621097-90.164532 0 0-2.517333-72.618924 157.784606-67.62519 0 0 112.701828 8.756431 146.515958 56.350402l14.766308 0 0.26299 0 14.765285 0c33.809013-47.596018 146.513912-56.350402 146.513912-56.350402 160.26203-4.993734 157.781536 67.62519 157.781536 67.62519 6.238075 65.10274-67.620074 90.164532-67.620074 90.164532 41.324174 55.109132 63.86147 116.455315 63.86147 116.455315C943.437661 68.055235 933.4461 252.137787 933.4461 252.137787L933.4461 252.137787z"  horiz-adv-x="1024" />

    
    <glyph glyph-name="tupian" unicode="&#58902;" d="M515.48928 253.38368l-233.4976 256.096L123.22432 206.6624l0-83.42912 788.6208 0c-100.43776 89.30816-312.25344 280.36992-312.25344 280.36992L515.48928 253.38368zM789.66144 446.12608c43.81056 0 79.29984 36.56192 79.29984 81.73056 0 45.12-35.48928 81.75232-79.29984 81.75232-43.6928 0-79.20384-36.63232-79.20384-81.75232C710.4576 482.688 745.96992 446.12608 789.66144 446.12608zM0 806.4l0-862.31168 1024 0L1024 806.4 0 806.4zM972.58496-1.08416 54.92352-1.08416l-0.04352 749.19808 860.3328 0 0-0.04864 57.37088 0L972.58368-1.08416z"  horiz-adv-x="1024" />

    
    <glyph glyph-name="down1" unicode="&#59022;" d="M729.700133 153.696256q4.571136-10.856448-2.85696-19.99872l-199.9872-219.414528q-5.71392-5.71392-13.142016-5.71392-7.999488 0-13.713408 5.71392l-202.84416 219.414528q-7.428096 9.142272-2.85696 19.99872 5.142528 10.856448 16.570368 10.856448l127.991808 0 0 713.097216q0 7.999488 5.142528 13.142016t13.142016 5.142528l109.707264 0q7.999488 0 13.142016-5.142528t5.142528-13.142016l0-713.097216 127.991808 0q11.999232 0 16.570368-10.856448z"  horiz-adv-x="1024" />

    
    <glyph glyph-name="up1" unicode="&#59361;" d="M729.700133 614.238208q-5.142528-10.856448-16.570368-10.856448l-127.991808 0 0-713.097216q0-7.999488-5.142528-13.142016t-13.142016-5.142528l-109.707264 0q-7.999488 0-13.142016 5.142528t-5.142528 13.142016l0 713.097216-127.991808 0q-11.999232 0-16.570368 10.856448t2.85696 19.99872l199.9872 219.414528q5.71392 5.71392 13.142016 5.71392 7.999488 0 13.713408-5.71392l202.84416-219.414528q7.428096-9.142272 2.85696-19.99872z"  horiz-adv-x="1024" />

    
    <glyph glyph-name="qita" unicode="&#58969;" d="M0 226.272l438.272 0 0-438.272-438.272 0 0 438.272ZM0 771.04l438.272 0 0-438.272-438.272 0 0 438.272ZM765.952 730.08c98.304 0 176.128-77.824 176.128-176.128 0-98.304-77.824-176.128-176.128-176.128-98.304 0-176.128 77.824-176.128 176.128C585.728 652.256 667.648 730.08 765.952 730.08M765.952 771.04c-118.784 0-217.088-98.304-217.088-217.088s98.304-217.088 217.088-217.088 217.088 98.304 217.088 217.088S884.736 771.04 765.952 771.04L765.952 771.04zM544.768 226.272l438.272 0 0-438.272-438.272 0 0 438.272Z"  horiz-adv-x="1024" />

    
    <glyph glyph-name="21" unicode="&#59088;" d="M631.466667 25.6c0-12.561067-10.194489-22.755556-22.755556-22.755556l-182.044444 0c-12.561067 0-22.755556 10.194489-22.755556 22.755556s10.194489 22.755556 22.755556 22.755556l182.044444 0C621.272178 48.355556 631.466667 38.161067 631.466667 25.6zM608.711111-8.533333l-182.044444 0c-14.973156 0-26.567111-14.461156-21.583644-30.173867 3.003733-9.477689 12.5952-15.337244 22.539378-15.337244l0.341333 0c13.141333 0 25.156267-7.429689 31.038578-19.182933l0.238933-0.477867C467.171556-89.543111 483.362133-99.555556 501.077333-99.555556l33.223111 0c17.7152 0 33.905778 10.012444 41.824711 25.850311l0.238933 0.477867c5.882311 11.753244 17.897244 19.182933 31.038578 19.182933l0.341333 0c9.944178 0 19.535644 5.859556 22.539378 15.337244C635.278222-22.994489 623.684267-8.533333 608.711111-8.533333zM517.688889 719.644444c12.561067 0 22.755556 10.194489 22.755556 22.755556l0 91.022222c0 12.561067-10.194489 22.755556-22.755556 22.755556s-22.755556-10.194489-22.755556-22.755556l0-91.022222C494.933333 729.838933 505.127822 719.644444 517.688889 719.644444zM276.332089 633.002667c4.437333-4.448711 10.262756-6.667378 16.088178-6.667378s11.650844 2.218667 16.088178 6.667378c8.886044 8.886044 8.886044 23.290311 0 32.176356l-64.364089 64.364089c-8.874667 8.886044-23.301689 8.886044-32.176356 0-8.886044-8.886044-8.886044-23.290311 0-32.176356L276.332089 633.002667zM221.866667 423.822222c0 12.561067-10.194489 22.755556-22.755556 22.755556l-91.022222 0c-12.561067 0-22.755556-10.194489-22.755556-22.755556s10.194489-22.755556 22.755556-22.755556l91.022222 0C211.672178 401.066667 221.866667 411.261156 221.866667 423.822222zM276.332089 214.641778l-64.364089-64.364089c-8.886044-8.886044-8.886044-23.290311 0-32.176356 4.437333-4.448711 10.262756-6.667378 16.088178-6.667378s11.650844 2.218667 16.088178 6.667378l64.364089 64.364089c8.886044 8.886044 8.886044 23.290311 0 32.176356C299.633778 223.527822 285.206756 223.527822 276.332089 214.641778zM759.045689 214.641778c-8.886044 8.886044-23.290311 8.886044-32.176356 0s-8.886044-23.290311 0-32.176356l64.364089-64.364089c4.448711-4.448711 10.262756-6.667378 16.088178-6.667378s11.639467 2.218667 16.088178 6.667378c8.886044 8.886044 8.886044 23.290311 0 32.176356L759.045689 214.641778zM927.288889 446.577778l-91.022222 0c-12.561067 0-22.755556-10.194489-22.755556-22.755556s10.194489-22.755556 22.755556-22.755556l91.022222 0c12.561067 0 22.755556 10.194489 22.755556 22.755556S939.849956 446.577778 927.288889 446.577778zM742.957511 626.335289c5.825422 0 11.639467 2.218667 16.088178 6.667378l64.364089 64.364089c8.886044 8.886044 8.886044 23.290311 0 32.176356s-23.290311 8.886044-32.176356 0l-64.364089-64.364089c-8.886044-8.886044-8.886044-23.290311 0-32.176356C731.306667 628.553956 737.132089 626.335289 742.957511 626.335289zM631.466667 82.488889c0-12.561067-10.194489-22.755556-22.755556-22.755556l-182.044444 0c-12.561067 0-22.755556 10.194489-22.755556 22.755556 0 12.117333 9.500444 21.936356 21.447111 22.619022C411.192889 233.153422 278.755556 261.677511 278.755556 412.444444c0 131.959467 106.973867 238.933333 238.933333 238.933333s238.933333-106.973867 238.933333-238.933333c0-150.766933-132.437333-179.291022-146.602667-307.336533C621.966222 104.425244 631.466667 94.606222 631.466667 82.488889zM465.248711 587.548444c-3.538489 8.726756-13.471289 12.925156-22.232178 9.409422-58.151822-23.563378-102.240711-73.9328-117.930667-134.735644-2.3552-9.136356 3.140267-18.432 12.265244-20.7872C338.773333 441.059556 340.206933 440.888889 341.617778 440.888889c7.600356 0 14.529422 5.108622 16.520533 12.8 12.993422 50.3808 49.516089 92.114489 97.6896 111.627378C464.566044 568.854756 468.775822 578.798933 465.248711 587.548444z"  horiz-adv-x="1024" />

    
    <glyph glyph-name="qita1" unicode="&#59121;" d="M84.68 412.5408c104.76-0.1632 209.52-0.1872 314.2784 0.0096 46.6 0.088 84.4256 37.9248 84.5152 84.5616 0.2016 104.7536 0.1648 209.5072 0.0096 314.2608-0.0576 38.9424-26.6208 72.392-64.3952 81.9744C415.3104 894.3072 411.4944 895.12 407.696 896 297.0816 896 186.4656 896 75.8512 896c-3.7952-0.88-7.608-1.6912-11.3824-2.6496C30.736 884.792 5.92 857.224 0.8848 822.784 0.7088 821.5744 0.3008 820.3984 0 819.2064c0-109.9776 0-219.9536 0-329.9312 0.3008-1.1936 0.7088-2.3712 0.8864-3.5824C6.9968 443.8032 42.3824 412.608 84.68 412.5408zM56.8928 752.3792c0.016 49.1296 37.5008 86.632 86.7136 86.7232 32.8576 0.0608 65.7152 0.0112 98.5712 0.0112 32.6992 0 65.3984 0.0592 98.0976-0.0144 42.3728-0.096 76.5984-28.136 84.8384-69.6416 1.0976-5.5312 1.472-11.288 1.4816-16.9408 0.0992-65.552 0.1184-131.1056 0.0448-196.6592-0.0544-48.912-37.5712-86.4272-86.4624-86.4784-65.5568-0.0672-131.1136-0.0608-196.6704-0.0016-49.1424 0.0448-86.6032 37.6368-86.616 86.8144C56.8736 621.5904 56.872 686.9856 56.8928 752.3792zM399.432 355.4976c-105.0736 0.2432-210.1504 0.1968-315.224 0.016-38.208-0.0656-71.6128-26.424-81.3376-63.4-1.1536-4.3856-1.9232-8.872-2.8704-13.3104 0-109.9776 0-219.9536 0-329.9312 0.3008-1.1936 0.7088-2.3696 0.8864-3.5808 6.0864-41.7136 41.3696-73.0544 83.3184-73.1328 105.0752-0.1984 210.1504-0.224 315.224 0.0096 46.0512 0.1024 83.92 37.984 84.024 84.0624 0.2368 105.0688 0.2368 210.1376 0 315.2064C483.3504 317.5152 445.5024 355.392 399.432 355.4976zM426.6416 15.512c-0.0528-48.936-37.5424-86.48-86.408-86.5328-65.7152-0.0704-131.4288-0.0816-197.144 0.0032-48.552 0.0624-86.1472 37.768-86.1952 86.28-0.0336 32.8544-0.0064 65.7104-0.0064 98.5648 0 32.6976-0.0128 65.3952 0.0032 98.0928 0.0208 42.6336 27.976 76.9312 69.7152 85.2624 5.3776 1.0736 10.9744 1.4576 16.4704 1.4656 65.7152 0.0976 131.4288 0.128 197.144 0.0416 48.8992-0.064 86.368-37.592 86.4208-86.52C426.712 146.6176 426.712 81.064 426.6416 15.512zM836.4544 418.5744c134.424 31.7248 214.7344 166.0832 178.9984 299.4608-24.0416 89.7296-99.6944 158.512-191.872 174.3104C814.5856 893.888 805.4832 894.7968 796.4304 896c-9.4816 0-18.9632 0-28.4432 0-1.5376-0.2864-3.0672-0.6208-4.6112-0.8528-11.848-1.776-23.9008-2.6784-35.5184-5.4224-128.064-30.2576-207.336-152.8896-182.808-282.3792C570.1984 474.56 704.6448 387.4688 836.4544 418.5744zM782.4784 839.1152c102.0112-0.1344 184.6848-82.9936 184.6144-185.0272-0.0704-102.0144-82.8784-184.7344-184.9152-184.7216-102.216 0.0144-185.0704 83.0512-184.8544 185.2608C597.5392 756.6528 680.4336 839.248 782.4784 839.1152zM1023.9664 268.9552c-0.0608 48.976-37.4688 86.5776-86.336 86.616-103.6352 0.0816-207.272 0.0848-310.9072-0.0016-48.832-0.04-86.2736-37.76-86.2832-86.6752-0.0192-103.3136-0.016-206.6272-0.0016-309.9424 0.008-49.2064 37.4496-86.832 86.5824-86.8576 103.4784-0.0544 206.9552-0.0384 310.4336 0.0416 5.4992 0.0048 11.096 0.3536 16.48 1.4 41.7024 8.104 69.9744 42.4592 70.0288 85.0032 0.0656 51.6576 0.016 103.3136 0.016 154.9712C1023.9808 165.3248 1024.032 217.1408 1023.9664 268.9552zM967.032 13.7376c-0.152-46.8656-37.9392-84.3776-84.8208-84.7712-0.3152-0.0032-0.632-0.0032-0.9472-0.0032-33.016 0-66.0304 0-99.0464 0-32.8576 0-65.7152-0.0512-98.5712 0.0128-42.4656 0.0816-76.8832 28.4784-84.9056 70.1568-0.9776 5.0816-1.352 10.352-1.36 15.536-0.088 66.184-0.12 132.3696-0.0368 198.5536 0.0592 47.3648 37.712 85.2976 85.0992 85.4368 66.504 0.1952 133.0096 0.1936 199.5136 0 47.2096-0.1376 84.9472-37.8096 85.0848-84.9472C967.2352 147.0544 967.2496 80.3952 967.032 13.7376z"  horiz-adv-x="1024" />

    
    <glyph glyph-name="dianhua" unicode="&#58918;" d="M507.918859 245.472488c-49.503789 40.346806-106.623387 94.611243-156.090335 155.822216-34.713235 42.89496-65.404683 87.94306-33.707276 119.633303L95.656089 742.757663C63.221866 702.344339-8.620745 509.896237 299.338585 194.825612c324.458887-332.036833 533.74323-261.005742 569.766359-223.573453L652.205814 187.850422C621.886867 157.599017 582.842793 184.496887 507.918859 245.472488zM947.385483 97.093135l0 0.201601c0 0-169.23738 168.702166-169.343809 168.769707-13.381394 13.347623-34.814547 13.078481-48.127376-0.067541l-61.340939-61.375733 217.469138-217.203066c0 0 61.409504 61.176179 61.342986 61.245767l0.165784 0.132013C961.605005 62.851667 960.162074 84.24798 947.385483 97.093135zM396.298428 598.873909l0 0.168854c14.051691 14.083415 12.74589 35.45005 0 48.196964l0 0.234348c0 0-174.132089 173.597897-174.200654 173.597897-13.452005 13.484753-34.884135 13.148069-48.163193 0l-61.342986-61.441228 222.299375-221.961668C334.888924 537.664983 396.298428 598.774644 396.298428 598.873909z"  horiz-adv-x="1025" />

    
    <glyph glyph-name="gouwudai1" unicode="&#58901;" d="M757.76 814.08 266.24 814.08c-67.864746 0-122.88-55.015254-122.88-122.88L102.4 76.8c0-67.864746 55.015254-122.88 122.88-122.88l573.44 0c67.864746 0 122.88 55.015254 122.88 122.88L880.64 691.2C880.64 759.064746 825.624746 814.08 757.76 814.08L757.76 814.08zM512 395.487516c-30.187982 0-59.479687 6.048207-87.061369 17.97637-26.599683 11.503482-50.477133 27.959941-70.968677 48.912027-20.460596 20.920401-36.52283 45.277797-47.740653 72.395744-11.606152 28.05647-17.490775 57.84335-17.490775 88.533385l41.018949 0c0-25.282656 4.836552-49.794057 14.375791-72.853584 9.205684-22.254131 22.381855-42.237237 39.162044-59.394456 16.749241-17.12578 36.238154-30.564767 57.925634-39.94386 22.411084-9.692016 46.224426-14.60643 70.779302-14.60643 24.554631 0 48.368219 4.914168 70.779057 14.60643 21.687234 9.379093 41.176393 22.81808 57.925634 39.94386 16.779943 17.157219 29.956114 37.140325 39.162044 59.394456 9.538994 23.059527 14.375545 47.571174 14.375545 72.853584l41.018949 0c0-30.690034-5.884868-60.476914-17.490775-88.533385-11.218069-27.117947-27.280058-51.475343-47.740653-72.395744-20.49179-20.952086-44.368994-37.408299-70.968923-48.912027C571.479687 401.535724 542.187982 395.487516 512 395.487516z"  horiz-adv-x="1024" />

    
    <glyph glyph-name="feijizhizao" unicode="&#58903;" d="M903.5264 189.9776l0 67.8656-305.4848 203.648 0 237.568c0 0 0 67.8656-67.8656 67.8656-67.8912 0-67.8912-67.8656-67.8912-67.8656l0-237.568L156.8256 257.8432l0-67.8656 305.4592 101.8368 0-190.1056-101.8112-81.4592 0-67.8656 169.7024 67.8656 169.7024-67.8656 0 67.8656-101.8368 81.4592 0 190.1056L903.5264 189.9776z"  horiz-adv-x="1024" />

    
    <glyph glyph-name="checkbox-checked-copy" unicode="&#58892;" d="M770.393 754.789h-516.788c-61.968 0-112.395-50.427-112.395-112.395v-516.74c0-62.014 50.427-112.442 112.395-112.442h516.74c62.014 0 112.442 50.427 112.442 112.395v516.788c0 61.968-50.427 112.395-112.395 112.395zM836.441 125.607c0-36.429-29.617-66.046-66.046-66.046h-516.788c-36.429 0-66.046 29.617-66.046 66.046v516.788c0 36.429 29.617 66.046 66.046 66.046h516.74c36.476 0 66.094-29.617 66.094-66.046v-516.788zM724.462 569.812l-308.311-308.311-116.614 116.659c-11.679 11.679-30.591 11.679-42.27 0s-11.679-30.591 0-42.27l137.702-137.702c5.841-5.841 13.534-8.76 21.228-8.76s15.341 2.873 21.181 8.76l329.399 329.399c11.679 11.679 11.679 30.591 0 42.27s-30.636 11.634-42.316-0.047z"  horiz-adv-x="1024" />

    
    <glyph glyph-name="batchimport" unicode="&#59436;" d="M925.376-24.64c0 229.632 0 459.328 0 688.96-50.688 0-101.376 0-152.128 0-11.456 0-22.848 0-34.24 0-6.656 0-13.76-0.512-19.392 0.768-7.040 1.6-13.056 4.096-18.304 7.616-19.328 12.8-30.336 44.992-14.848 70.848 6.656 11.136 17.216 19.328 30.976 22.976 5.824 1.536 13.44 1.152 20.672 1.152 10.944 0 21.952 0 32.96 0 52.672 0 105.344 0 157.952 0 36.096 0 66.112 4.288 82.624-17.28 4.992-6.592 9.024-13.696 11.264-23.168 1.344-5.888 1.088-13.312 1.088-20.544 0-10.304 0-20.672 0-30.976 0-44.864 0-89.792 0-134.656 0-145.344 0-290.752 0-436.096 0-43.84 0-87.744 0-131.648 0-12.032 0-24.192 0-36.288 0-10.112 0.256-20.352-1.984-28.032-5.504-18.368-18.368-30.912-36.8-35.712-6.464-1.728-14.784-1.152-22.656-1.152-12.864 0-25.728 0-38.592 0-43.904 0-87.744 0-131.584 0-16.64 0-33.216 0-49.792 0-11.264 0-22.592-0.512-30.656 2.816-15.040 6.144-25.984 17.344-30.976 33.984-7.232 24.32 5.12 46.976 18.304 56.832 5.504 4.032 12.032 7.104 19.776 8.896 5.44 1.28 12.544 0.768 19.072 0.768 11.136 0 22.336 0 33.472 0 51.264-0.064 102.528-0.064 153.792-0.064zM121.536 593.664c94.4 0 188.8 0 283.136 0 0-65.152 0-130.304 0-195.456-6.528 0.064-13.12 0.128-19.648 0.192 0 58.176 0 116.352 0 174.592-81.28 0-162.624 0-243.904 0 0-14.528 0-28.992 0-43.52 67.456 0 134.912 0 202.368 0 0-43.776 0-87.488 0-131.264-6.528 0-13.056 0-19.584 0 0 36.928-0.064 73.792-0.128 110.72-81.408-0.064-162.816-0.128-244.224-0.192 0.064-14.464 0.128-28.992 0.192-43.456 67.968 0 135.872 0 203.84 0 0-22.4 0-44.736 0-67.072-7.424-0.064-13.632-1.856-19.584-3.008 0 16.96 0 33.92 0 50.88-81.408 0-162.816 0-244.224 0 0-120.96 0-241.984 0-362.944 81.344 0 162.816 0 244.224 0 0 53.12 0 106.24 0 159.36 5.632-1.984 12.288-3.008 19.584-3.072 0-31.040 0-62.208 0-93.312 13.44 0.128 26.944 0.128 40.384 0.256 0 30.976 0 62.016 0 93.056 6.528 0 13.056 0 19.584 0 0-9.792 0-19.648 0-29.44 13.824 0 27.648 0 41.472 0 0 9.792 0.064 19.648 0.128 29.44 6.528 0 13.056 0 19.584 0 0-16.704 0-33.344 0-49.92-20.416 0-40.832 0-61.248 0 0-20.864 0-41.664 0-62.528-20.032-0.128-40-0.128-59.968-0.256 0-21.376 0-42.88 0-64.384-94.528 0-189.056 0-283.52 0 0 134.336 0 268.608 0 402.88 19.968 0 40 0 59.968 0 0 21.376 0 42.752 0 64.192 20.544 0.064 41.088 0.128 61.568 0.192 0 21.376 0 42.752 0 64.064zM545.472 525.44c21.568 0.448 29.632-9.472 41.152-19.2 7.872-7.424 15.744-14.784 23.552-22.208 43.072-40.512 86.144-81.024 129.216-121.536 14.144-11.904 28.8-35.264 18.624-62.144-5.12-13.632-15.104-22.656-25.152-31.104-9.728-9.152-19.392-18.24-28.992-27.392-41.792-39.488-83.648-78.976-125.376-118.528-15.488-12.416-39.232-15.168-57.472-3.264-18.24 12.032-30.976 43.2-16.256 69.376 5.248 9.28 13.376 16.512 21.184 23.104 19.072 18.112 38.208 36.224 57.28 54.4l-0 0.192c-86.592 0-173.248 0-259.84 0-9.92 0-19.904 0-29.888 0-6.912 0-14.016-0.32-19.584 1.216-14.976 3.968-24.96 12.672-31.936 25.088-3.2 5.696-8.064 17.664-6.464 28.032 3.904 24.768 14.336 40.192 35.136 46.912 8.128 2.624 19.456 2.112 30.080 2.112 16.576 0 33.216 0 49.792 0 77.568 0 155.2 0 232.832 0-0.192 0.256-0.384 0.512-0.576 0.768-9.664 9.088-19.264 18.176-28.928 27.328-7.232 6.848-14.528 13.696-21.76 20.544-16.832 14.208-42.88 36.352-31.168 71.424 1.792 5.312 4.352 10.24 7.232 14.4 5.568 7.936 13.952 14.336 23.552 17.856 3.136 0.768 6.272 1.536 9.344 2.304 1.6 0.128 3.008 0.192 4.416 0.32zM60.288 402.24c54.144 0 108.224 0 162.368 0 0-7.104 0-14.208 0-21.312-54.080 0-108.224 0-162.368 0-0 7.104-0 14.208-0 21.312zM59.968 337.6c50.432 0 100.864 0 151.296 0 0-0.064 0-0.128 0-0.192-1.728-5.44-2.176-12.032-2.176-18.944-49.664 0-99.392 0-149.12 0 0 6.4 0 12.8 0 19.136zM59.968 273.792c54.080 0 108.224 0 162.304 0 0-6.784 0-13.696 0-20.544-54.080 0-108.224 0-162.304 0 0 6.848 0 13.76 0 20.544zM59.968 210.752c54.080 0 108.224 0 162.304 0 0-6.848 0-13.824 0-20.736-54.080 0-108.224 0-162.304 0 0 6.912 0 13.888 0 20.736zM59.968 146.56c54.080 0 108.224 0 162.304 0 0-6.912 0-13.824 0-20.672-54.080 0-108.224 0-162.304 0 0 6.848 0 13.76 0 20.672z"  horiz-adv-x="1025" />

    
    <glyph glyph-name="iconfonticonfontzhifubao" unicode="&#58896;" d="M1009.83 199.914v490.167c0 105.696-85.749 191.445-191.445 191.445l-612.77-0c-105.696 0-191.445-85.749-191.445-191.445v-612.77c0-105.696 85.749-191.445 191.445-191.445h612.77c94.141 0 172.471 68.113 188.526 157.632-50.841 22.015-270.869 117.008-385.444 171.741-87.208-105.696-178.552-169.065-316.359-169.065-137.685 0-229.637 84.776-218.568 188.648 7.298 68.113 54.004 179.525 257.003 160.43 106.912-9.974 155.929-30.043 243.138-58.869 22.623 41.354 41.354 86.965 55.585 135.374l-386.904-0v38.313h191.445v68.842h-233.529l0 42.205h233.529v99.371c0 0 2.068 15.569 19.339 15.569h95.723v-114.94h248.976v-42.205l-248.976 0v-68.842h203.122c-18.731-76.019-46.949-145.834-82.465-206.77 58.869-21.285 327.305-103.385 327.305-103.385v0 0 0zM289.904 111.854c-145.591 0-168.579 91.83-160.916 130.265 7.663 38.192 49.747 88.060 130.63 88.060 92.925 0 176.241-23.718 276.221-72.491-70.059-91.344-156.416-145.834-245.935-145.834v0 0zM289.904 111.854z"  horiz-adv-x="1024" />

    
    <glyph glyph-name="2" unicode="&#58895;" d="M355.1232 317.44 173.6704 573.0304l-34.2016-26.8288 181.4528-255.5904L355.1232 317.44zM731.136 612.1472 549.6832 867.7376l-34.2016-26.8288 181.4528-255.5904L731.136 612.1472zM550.2976 478.6176l121.6512 95.4368-174.08 244.9408L208.0768 591.872l174.08-244.9408 121.6512 95.4368 289.5872-462.848 96.6656 75.776L550.2976 478.6176zM908.288 22.9376 817.5616-48.128l25.3952-35.84 90.7264 71.0656L908.288 22.9376zM178.176-85.4016l404.0704 0 0 89.4976L178.176 4.096 178.176-85.4016z"  horiz-adv-x="1024" />

    
    <glyph glyph-name="i-message" unicode="&#58921;" d="M511.914-32.016c-8.257 0-16.341 3.096-22.706 9.461l-95.984 95.984c-12.557 12.557-12.557 32.683 0 45.24s32.683 12.557 45.24 0l73.45-73.45 73.45 73.45c6.020 6.020 14.105 9.461 22.706 9.461h223.962c17.717 0 31.995 14.277 31.995 31.995v511.914c0 17.545-14.277 31.995-31.995 31.995h-639.892c-17.545 0-31.995-14.449-31.995-31.995v-511.914c0-17.717 14.449-31.995 31.995-31.995h95.984c17.717 0 31.995-14.277 31.995-31.995s-14.277-31.995-31.995-31.995h-95.984c-52.98 0-95.984 43.004-95.984 95.984l0 511.914c0 52.98 43.004 95.984 95.984 95.984h639.892c52.98 0 95.984-43.004 95.984-95.984v-511.914c0-52.98-43.004-95.984-95.984-95.984h-210.889l-86.523-86.695c-6.193-6.193-14.449-9.461-22.706-9.461zM335.944 384.086c-26.49 0-47.992 21.502-47.992 47.992s21.502 47.992 47.992 47.992 47.992-21.502 47.992-47.992-21.502-47.992-47.992-47.992zM527.911 384.086c-26.49 0-47.992 21.502-47.992 47.992s21.502 47.992 47.992 47.992 47.992-21.502 47.992-47.992-21.502-47.992-47.992-47.992zM720.051 384.086c-26.49 0-47.992 21.502-47.992 47.992s21.502 47.992 47.992 47.992c26.49 0 47.992-21.502 47.992-47.992s-21.674-47.992-47.992-47.992z"  horiz-adv-x="1024" />

    
    <glyph glyph-name="zhusu1" unicode="&#59139;" d="M163.452699 628.823961c45.941332 95.350648 200.61611 124.471896 270.142603 47.308469l17.838274-43.273573c23.187095 1.479701 35.06154 6.082532 59.069327 6.224772l6.110161 0.029676c22.556739 0 33.013905-5.059226 54.807257-6.253424l17.697057 43.273573c69.556169 77.163427 224.200248 48.042179 270.170233-47.308469l-8.495488-54.777581c42.704614-17.844413 82.109066-51.90516 115.206882-76.400041L965.999005 753.353163C834.598302 816.682513 695.293583 838.589452 511.413646 838.589452l-1.850138-0.027629C325.883115 837.67871 189.593056 816.768471 56.821123 753.353163l0-255.706823c33.047674 23.954575 72.451102 56.884568 115.411543 74.699306L163.452699 628.823961 163.452699 628.823961zM511.413646 611.293703c-422.995897 0-511.413646-255.706823-511.413646-255.706823l1022.827291 0C1022.827291 355.58688 912.35934 611.293703 511.413646 611.293703L511.413646 611.293703zM0 128.296247l1022.827291 0L1022.827291 298.76678 0 298.76678 0 128.296247 0 128.296247zM28.41005-70.589452l85.238336 0L113.648386 99.880057 28.41005 99.880057 28.41005-70.589452 28.41005-70.589452zM909.177881-70.589452l85.238336 0L994.416218 99.880057l-85.238336 0L909.177881-70.589452 909.177881-70.589452zM909.177881-70.589452"  horiz-adv-x="1039" />

    
    <glyph glyph-name="renshu" unicode="&#58893;" d="M959.048197 92.770126c0-0.029676 0-0.044002 0-0.071631 0-15.223726-12.456706-27.565822-27.824719-27.565822L723.813638 65.132672c15.541975 3.405563 27.184129 17.086144 27.184129 33.503045 0 0.027629 0 0.041956 0 0.085958l0 0c0 0 0 125.18514-92.382037 170.69259-39.497573 19.458167-42.087561 15.747659-61.70434 20.3597l0.522909 54.239322c0 0-21.538549 16.328897-28.260647 67.540256-13.476943-3.871167-17.960047 15.688307-18.7439 28.130687-0.727571 12.020778-7.829316 49.582255 8.643867 46.192042-3.37691 25.074072-5.763261 47.674812-4.599761 59.652612 4.134157 42.057885 45.057195 85.993536 108.041692 89.209788 74.105788-3.216251 103.502305-47.122227 107.605763-89.166809 1.193175-11.976776-1.427512-34.621519-4.802376-59.652612 16.47523 3.347235 9.314133-34.141588 8.499581-46.162366-0.727571-12.456706-5.297656-31.9292-18.744923-28.072359-6.722098-51.212382-28.290323-67.423599-28.290323-67.423599l0.49528-54.138014c0 0 13.649881-7.712659 71.222111-31.331589 57.57223-23.648606 39.527249-5.951549 86.445838-29.061896C959.048197 193.200466 959.048197 92.770126 959.048197 92.770126L959.048197 92.770126zM541.34791 278.001851c63.305815-25.990954 43.455721-6.563486 95.031377-31.958876 81.437777-40.137139 81.437777-150.535505 81.437777-150.535505l0 0c0-0.027629 0-0.044002 0-0.071631 0-16.736173-13.679557-30.30112-30.619368-30.30112L95.588567 65.134719c-16.881482 0-30.590715 13.564947-30.590715 30.30112 0 0.027629 0.029676 0.044002 0.029676 0.071631l-0.058328 0c0 0 0 110.399389 81.497129 150.550855 51.575656 25.39539 31.724539 4.773723 95.001701 30.764678 63.276139 25.963325 78.295204 35.015491 78.295204 35.015491l0.582261 59.826574c0 0-23.692608 17.944697-31.05632 74.234725-14.84408-4.234441-19.73446 17.245779-20.60734 30.925337-0.785899 13.213953-8.585539 54.501288 9.517771 50.77543-3.725858 27.563776-6.374174 52.404534-5.064342 65.575508 4.54041 46.220694 49.479925 94.507444 118.751614 98.04399 81.467453-3.521197 113.746624-51.794643 118.287033-98.014314 1.281179-13.155624-1.600451-38.041408-5.296633-65.546855 18.10331 3.681856 10.214642-37.532825 9.342786-50.746778-0.785899-13.679557-5.791913-35.101449-20.60734-30.867008-7.393387-56.291051-31.114648-74.103742-31.114648-74.103742l0.582261-59.508325C463.082382 312.433034 478.042095 303.948803 541.34791 278.001851z"  horiz-adv-x="1024" />

    
    <glyph glyph-name="cai" unicode="&#58953;" d="M856.146037 512.808385C846.939757 527.002341 764.06336 660.54355 764.06336 660.54355c-9.07072 20.425162-35.699976 35.267091-53.36696 35.267091L409.697964 695.810641c-17.708555 0-32.036262-15.788132-32.036262-35.267091l0-384.090825c0-11.151103 4.785241-20.965591 12.125322-27.440804l-0.283771 0c0.161767-0.054224 0.309979-0.107544 0.459998-0.148211 5.460326-4.731017 12.246421-7.678075 19.734713-7.678075l1.041095 0c47.068878-18.586979 104.357114-51.164574 104.357114-113.655574 0-78.389387-0.013556-133.283647 39.18656-141.097281 39.201923-7.839842 138.178239 49.433934 124.024951 172.443999-4.853021 42.188745-14.503934 66.520724-22.101578 82.308856L831.650483 241.185635c17.667887 0 32.010054 15.788132 32.010054 35.267091l0 197.871296C863.660537 474.324022 865.350509 498.627985 856.146037 512.808385zM305.192639 696.567061l-82.308856 0c-19.464499 0-35.252631-15.314579-35.252631-34.199787l0-387.739176c0-18.896957 15.788132-34.199787 35.252631-34.199787l82.308856 0c19.492514 0 35.294202 15.301926 35.294202 34.199787L340.486841 662.367274C340.487745 681.252483 324.685153 696.567061 305.192639 696.567061z"  horiz-adv-x="1024" />

    
    <glyph glyph-name="dingwei1" unicode="&#58961;" d="M511.296 151.744 510.144 151.744c-38.528 0-206.976 196.8-250.112 268.672-67.52 112.512-81.792 280.256 21.248 383.36C371.008 893.504 504.256 896 509.888 896l0.064 0c18.048 0 153.28-2.752 231.552-93.696 86.4-100.416 94.656-257.408 20.032-381.888C718.272 348.544 549.76 151.744 511.296 151.744L511.296 151.744zM512.384 843.968c-3.072 0-119.808-2.56-194.24-76.992C234.752 683.584 249.024 540.032 304.64 447.232c50.624-84.288 169.024-208.32 206.08-239.104 37.12 30.72 155.52 154.816 206.144 239.104 62.144 103.744 55.872 238.784-14.848 321.152C637.76 843.072 517.504 843.968 512.384 843.968L512.384 843.968zM512.384 843.968M508.864 464.192c-79.424 0-144.064 64.64-144.064 144 0 79.424 64.64 144.064 144.064 144.064 79.424 0 144-64.64 144-144.064C652.864 528.896 588.224 464.192 508.864 464.192L508.864 464.192zM508.864 700.224c-50.752 0-91.968-41.28-91.968-91.968 0-50.688 41.216-91.904 91.968-91.904 50.624 0 91.904 41.28 91.904 91.904C600.768 658.944 559.488 700.224 508.864 700.224L508.864 700.224zM508.864 700.224M969.728 306.752c-1.344 2.176-2.624 4.032-128.128 146.304l-39.104-34.432c43.52-49.28 107.776-122.112 121.152-137.408 6.016-36.096 31.36-225.6 42.112-318.144-8.128 5.632-16.768 11.52-25.024 17.152-86.272 59.008-124.608 84.352-144.512 95.232L796.224 326.464l-52.032 0 0-253.248c-27.776-14.528-84.992-48.768-209.664-130.24l0 151.488L482.496 94.464l0-146.752c-130.112 84.864-184.512 116.864-209.088 129.024L273.408 326.464 221.312 326.464l0-254.464c-21.44-12.608-60.288-38.656-137.92-91.52-8.384-5.888-16.96-11.648-25.152-17.28 10.816 92.096 36.032 280.896 42.176 317.888 16.32 18.816 78.656 89.536 121.152 137.664L182.592 453.312C56.832 310.848 55.68 308.992 54.272 306.88c-11.2-17.472-52.864-398.144-52.288-400.384l2.56-11.008 9.344-5.76c15.36-9.28 15.296-9.344 98.88 47.616 41.216 28.096 114.368 78.272 139.264 92.224 31.68-16.128 143.808-87.104 243.84-153.024l6.08-3.904L521.28-128l6.912 4.48c100.032 65.984 212.16 136.896 243.776 153.152 24.896-14.144 98.112-64.128 139.392-92.352 83.52-56.896 83.52-56.896 98.88-47.616l9.344 5.888 2.496 10.624C1022.72-91.52 980.992 289.28 969.728 306.752L969.728 306.752zM969.728 306.752"  horiz-adv-x="1024" />

    
    <glyph glyph-name="fenlei" unicode="&#58968;" d="M372.374696 802.84581q25.491887 0 43.61527-17.653053t18.123383-43.113585l0-244.979227q0-25.491887-18.123383-43.61527t-43.61527-18.123383l-244.979227 0q-25.491887 0-43.113585 18.123383t-17.653053 43.61527l0 244.979227q0 25.491887 17.653053 43.113585t43.113585 17.653053l244.979227 0zM372.374696 312.918711q25.491887 0 43.61527-17.653053t18.123383-43.113585l0-245.951242q0-25.491887-18.123383-43.113585t-43.61527-17.653053l-244.979227 0q-25.491887 0-43.113585 17.653053t-17.653053 43.113585l0 245.951242q0 25.491887 17.653053 43.113585t43.113585 17.653053l244.979227 0zM863.27381 312.918711q25.491887 0 43.113585-17.653053t17.653053-43.113585l0-245.951242q0-25.491887-17.653053-43.113585t-43.113585-17.653053l-244.979227 0q-25.491887 0-43.61527 17.653053t-18.123383 43.113585l0 245.951242q0 25.491887 18.123383 43.113585t43.61527 17.653053l244.979227 0zM999.481383 695.077526q19.597084-19.597084 19.597084-46.060986t-19.597084-45.088971l-182.268558-182.268558q-19.597084-19.597084-45.559301-19.597084t-45.559301 19.597084l-182.268558 182.268558q-18.625069 18.625069-18.625069 45.088971t18.625069 46.060986l182.268558 182.268558q19.597084 18.625069 45.559301 18.625069t45.559301-18.625069z"  horiz-adv-x="1024" />

    
    <glyph glyph-name="icon_good" unicode="&#58924;" d="M841.901 487.813h-177.885c-4.087 0-7.605 1.824-9.635 4.979-2.045 3.189-2.387 6.789-0.932 10.314 10.105 19.105 57.494 115.411 44.9 217.797-3.519 28.75-18.949 67.455-72.483 88.576-13.886 5.465-39.683 8.027-59.192 8.602-46.86 1.38-56.33-7.693-60.373-11.568-0.165-0.156-0.324-0.316-0.484-0.477-15.085-15.409-13.857-37.493-12.3-65.453 0.795-14.287 1.695-30.467 0.858-48.954-4.579-49.571-11.171-76.335-24.283-98.636-40.69-69.271-109.423-104.142-122.657-105.213l-260.846-0c-11.762 0-21.296-9.534-21.296-21.296v-414.746c0-11.761 9.534-21.296 21.296-21.296h164.338c0.859 0 1.701 0.065 2.534 0.165h104.601c1.191-0.969 2.535-2.081 3.739-3.082 22.953-19.025 83.921-69.563 184.572-69.563h209.635c53.635 0 96.863 29.225 112.82 76.27 0.139 0.409 0.266 0.824 0.381 1.241 2.246 8.248 8.026 25.421 15.344 47.162 27.736 82.409 74.159 220.339 74.159 294.157 0 72.631-40.392 111.022-116.808 111.022zM107.883 445.188h121.745v-372.153h-121.745v372.153zM844.183 96.222c-7.649-22.724-13.225-39.29-15.883-48.863-10.205-29.32-37.184-46.804-72.294-46.804h-209.635c-85.293 0-135.816 41.88-157.39 59.763-9.692 8.032-15.542 12.881-24.846 12.881h-91.914l0 371.988h75.364c20.070 0 51.521 17.556 74.262 33.985 24.395 17.623 58.936 47.933 84.964 92.243 19.040 32.387 25.602 68.704 30.020 116.802 0.030 0.317 0.051 0.634 0.067 0.953 0.975 20.862-0.040 39.115-0.855 53.781-0.634 11.404-1.403 25.209-0.179 31.395 15.941 3.081 61.37 0.632 74.387-4.49 27.712-10.934 42.702-28.639 45.823-54.138 11.341-92.194-35.077-182.904-40.407-192.944-0.493-0.932-0.749-1.487-0.749-1.487-7.703-16.701-6.354-35.948 3.625-51.509 9.889-15.376 26.888-24.556 45.474-24.556h177.885c52.713 0 74.215-19.826 74.215-68.43-0.001-66.842-46.795-205.876-71.934-280.57z"  horiz-adv-x="1024" />

    
    <glyph glyph-name="fujian" unicode="&#59093;" d="M724.818 817.347c85.013-50.646 113.954-160.982 63.308-245.999l-228.815-386.175c-33.462-56.978-106.72-75.969-163.696-42.507-56.978 33.462-75.969 106.72-42.507 163.696l182.689 309.307c8.139 14.468 27.129 18.99 40.698 10.851 14.471-8.139 18.993-27.133 10.851-40.698l-182.685-309.307c-17.184-28.035-7.232-65.115 20.802-82.298 28.035-17.184 65.115-7.238 82.298 20.802l228.815 386.175c33.462 56.978 14.471 130.233-42.508 163.696-56.975 33.462-130.234 14.473-163.696-42.508l-274.034-463.959c-50.646-85.010-21.706-195.347 63.308-245.994s195.35-21.706 245.999 63.308l228.811 386.175c8.139 14.473 27.133 18.994 40.701 10.855 14.469-8.142 18.991-27.133 10.851-40.701l-228.815-386.178c-66.925-113.954-214.341-151.94-328.297-84.11-113.954 66.925-151.94 214.341-84.11 328.297l274.033 463.957c49.742 85.015 160.079 113.050 245.999 63.31v0 0zM724.818 817.347z"  horiz-adv-x="1024" />

    
    <glyph glyph-name="tel" unicode="&#58919;" d="M511.938 565.497c-4.239 0-8.388-0.402-12.583-0.647v-77.121c4.217 0.379 8.254 1.271 12.583 1.271 76.564 0 138.616-62.777 138.616-140.222 0-13.352-2.432-26.012-5.89-38.248h77.969c2.187 12.436 3.524 25.175 3.524 38.248 0.001 119.676-95.893 216.719-214.219 216.719v0zM511.938 718.479c-4.239 0-8.366-0.502-12.583-0.647v-76.496c4.195 0.189 8.344 0.647 12.583 0.647 160.077 0 289.846-131.265 289.846-293.205 0-13.006-1.138-25.699-2.745-38.248h76.374c1.294 12.57 1.964 25.332 1.964 38.248 0 204.181-163.601 369.701-365.44 369.701v0zM644.798 197.948c-41.951 16.241-81.683 37.121-127.773-6.379-28.443-26.86-48.99-23.927-67.596-13.921-18.583 9.995-133.061 128.253-148.7 166.936-15.617 38.673-7.184 43.893 0 55.627 7.184 11.734 57.021 39.129 27.038 125.197-30.005 86.067-53.541 150.874-175.737 0-12.672-15.649 0-83.468 0-83.468s86.145-284.917 378.513-403.399c45.376-18.383 147.874 10.73 189.256 83.479 20.28 35.627-9.145 50.451-75.001 75.927v0zM644.798 197.948z"  horiz-adv-x="1024" />

    
    <glyph glyph-name="typedashcard" unicode="&#59133;" d="M823.154157 673.822828l-621.914342 0c-39.477107 0-71.759347-32.282241-71.759347-71.759347l0-430.556083c0-39.477107 32.282241-71.759347 71.759347-71.759347l621.914342 0c39.477107 0 71.759347 32.282241 71.759347 71.759347l0 430.556083C894.913505 641.540587 862.631264 673.822828 823.154157 673.822828zM201.239815 625.983263l621.914342 0c12.94073 0 23.919782-10.93198 23.919782-23.919782l0-71.759347-669.753907 0 0 71.759347C177.320033 615.05026 188.299085 625.983263 201.239815 625.983263zM823.154157 147.587616l-621.914342 0c-12.94073 0-23.919782 10.933003-23.919782 23.919782L177.320033 386.785439l669.753907 0 0-215.278041C847.07394 158.519596 836.095911 147.587616 823.154157 147.587616zM225.159598 291.10631l47.839565 0 0-95.67913-47.839565 0L225.159598 291.10631zM320.838727 291.10631l47.839565 0 0-95.67913-47.839565 0L320.838727 291.10631zM416.517857 291.10631l47.839565 0 0-95.67913-47.839565 0L416.517857 291.10631z"  horiz-adv-x="1024" />

    
    <glyph glyph-name="weixin" unicode="&#58920;" d="M1243.574857 239.396571c0 177.883429-176.054857 322.852571-373.869714 322.852571-209.444571 0-374.345143-144.969143-374.345143-322.852571 0-178.176 164.937143-322.852571 374.345143-322.852571 43.812571 0 88.027429 11.190857 132.059429 22.345143l120.722286-66.852571-33.097143 111.177143C1177.709714 50.212571 1243.574857 139.081143 1243.574857 239.396571zM748.324571 295.058286c-21.906286 0-44.032 22.016-44.032 44.507429 0 22.198857 22.125714 44.544 44.032 44.544 33.316571 0 55.113143-22.308571 55.113143-44.544C803.437714 317.074286 781.641143 295.058286 748.324571 295.058286zM990.427429 295.058286c-21.796571 0-43.702857 22.016-43.702857 44.507429 0 22.198857 21.942857 44.544 43.702857 44.544 32.987429 0 55.076571-22.308571 55.076571-44.544C1045.504 317.074286 1023.414857 295.058286 990.427429 295.058286zM841.874286 586.130286c14.299429 0 28.342857-1.024 42.349714-2.596571-38.070857 179.236571-227.657143 312.429714-444.086857 312.429714-241.956571 0-440.137143-166.692571-440.137143-378.368 0-122.221714 65.938286-222.537143 176.128-300.361143L132.096 83.419429l153.856 77.970286c55.076571-11.008 99.254857-22.308571 154.185143-22.308571 13.824 0 27.501714 0.694857 41.069714 1.755429-8.557714 29.732571-13.568 60.891429-13.568 93.257143C467.638857 428.434286 632.795429 586.130286 841.874286 586.130286zM605.184 706.779429c33.133714 0 55.113143-22.052571 55.113143-55.515429 0-33.389714-21.979429-55.661714-55.113143-55.661714-32.950857 0-66.084571 22.272-66.084571 55.661714C539.099429 684.763429 572.233143 706.779429 605.184 706.779429zM297.142857 595.602286c-32.950857 0-66.267429 22.272-66.267429 55.661714 0 33.462857 33.28 55.515429 66.267429 55.515429 32.987429 0 54.966857-22.052571 54.966857-55.515429C352.109714 617.910857 330.130286 595.602286 297.142857 595.602286z"  horiz-adv-x="1244" />

    
    <glyph glyph-name="gouwudai" unicode="&#58943;" d="M927.338496-128 96.616478-128c-53.354162 0-96.596012 43.24185-96.596012 96.596012L0.020466 548.169013c0 53.343929 43.240827 96.596012 96.596012 96.596012l193.191001 0 0 38.637995c0 106.688881 86.501096 193.191001 193.191001 193.191001l57.958016 0c106.687858 0 193.191001-86.50212 193.191001-193.191001 0 0 0-15.442714 0-38.637995l193.191001 0c53.354162 0 96.596012-43.252083 96.596012-96.596012l0-579.573002C1023.934508-84.75815 980.692658-128 927.338496-128zM695.508477 664.083c0 96.030124-77.840856 173.872003-173.872003 173.872003l-19.318998 0c-96.0291 0-173.872003-77.841879-173.872003-173.872003l0-19.318998 367.063003 0C695.508477 656.979208 695.508477 664.083 695.508477 664.083zM908.019499 606.126007 734.147496 606.126007c0-38.373982 0-83.767845 0-119.555933 12.828167-6.282077 21.734-19.34765 21.734-34.590819 0-21.349237-17.301038-38.648229-38.639019-38.648229s-38.637995 17.298991-38.637995 38.648229c0 13.272281 6.697539 24.968671 16.903995 31.930223 0 44.50461 0 88.709391 0 122.216529L328.446497 606.126007l0-119.555933c12.828167-6.282077 21.734-19.34765 21.734-34.590819 0-21.349237-17.301038-38.648229-38.637995-38.648229-21.337981 0-38.637995 17.298991-38.637995 38.648229 0 13.272281 6.697539 24.968671 16.903995 31.930223L289.808502 606.126007 115.935476 606.126007c-49.052183-4.301979-77.275991-23.933085-77.275991-77.277014l0-540.935006c2.15099-57.655118 36.826743-70.825069 77.275991-77.277014l792.084023 0c40.448224 0 79.426981 38.978756 77.277014 77.277014L985.296513 528.850016C991.749482 584.344934 954.921715 603.975017 908.019499 606.126007z"  horiz-adv-x="1040" />

    
    <glyph glyph-name="weibo" unicode="&#58925;" d="M916.48 377.856q27.648-21.504 38.912-51.712t9.216-62.976-14.336-65.536-31.744-59.392q-34.816-48.128-78.848-81.92t-91.136-56.32-94.72-35.328-89.6-18.944-75.264-7.68-51.712-1.536-49.152 2.56-68.096 10.24-78.336 21.504-79.872 36.352-74.24 55.296-59.904 78.848q-16.384 29.696-22.016 63.488t-5.632 86.016q0 22.528 7.68 51.2t27.136 63.488 53.248 75.776 86.016 90.112q51.2 48.128 105.984 85.504t117.248 57.856q28.672 10.24 63.488 11.264t57.344-11.264q10.24-11.264 19.456-23.04t12.288-29.184q3.072-14.336 0.512-27.648t-5.632-26.624-5.12-25.6 2.048-22.528q17.408-2.048 33.792 1.536t31.744 9.216 31.232 11.776 33.28 9.216q27.648 5.12 54.784 4.608t49.152-7.68 36.352-22.016 17.408-38.4q2.048-14.336-2.048-26.624t-8.704-23.04-7.168-22.016 1.536-23.552q3.072-7.168 14.848-13.312t27.136-12.288 32.256-13.312 29.184-16.384zM658.432 59.392q26.624 16.384 53.76 45.056t44.032 64 18.944 75.776-20.48 81.408q-19.456 33.792-47.616 57.344t-62.976 37.376-74.24 19.968-80.384 6.144q-78.848 0-139.776-16.384t-105.472-43.008-72.192-60.416-38.912-68.608q-11.264-33.792-6.656-67.072t20.992-62.976 42.496-53.248 57.856-37.888q58.368-25.6 119.296-32.256t116.224-0.512 100.864 21.504 74.24 33.792zM524.288 382.976q20.48-8.192 38.912-18.432t32.768-27.648q10.24-12.288 17.92-30.72t10.752-39.424 1.536-42.496-9.728-38.912q-8.192-18.432-19.968-37.376t-28.672-35.328-40.448-29.184-57.344-18.944q-61.44-11.264-117.76 11.264t-88.064 74.752q-12.288 39.936-13.312 70.656t16.384 66.56q13.312 27.648 40.448 51.712t62.464 38.912 75.264 17.408 78.848-12.8zM361.472 131.072q37.888-3.072 57.856 18.432t21.504 48.128-15.36 47.616-52.736 16.896q-27.648-3.072-43.008-23.552t-17.408-43.52 9.728-42.496 39.424-21.504zM780.288 889.856q74.752 0 139.776-19.968t113.664-57.856 76.288-92.16 27.648-122.88q0-33.792-16.384-50.688t-35.328-17.408-35.328 14.336-16.384 45.568q0 40.96-22.528 77.824t-59.392 64.512-84.48 43.52-96.768 15.872q-31.744 0-47.104 15.36t-14.336 34.304 18.944 34.304 51.712 15.36zM780.288 726.016q95.232 0 144.384-48.64t49.152-146.944q0-30.72-10.24-43.52t-22.528-11.264-22.528 14.848-10.24 35.84q0 60.416-34.816 96.256t-93.184 35.84q-19.456 0-28.672 10.752t-9.216 23.04 9.728 23.04 28.16 10.752z"  horiz-adv-x="1141" />

    
    <glyph glyph-name="download" unicode="&#59027;" d="M583.552 765.856l0-263.296-143.104 0 0.032 263.296 143.104 0zM261.92 502.528l250.048-250.048 250.08 250.08zM799.36 300.864l-0.064-150.528c0-15.456-15.072-27.968-33.6-27.968l-507.52 0c-18.56 0-33.536 12.512-33.536 27.968l0 152.256-111.808 0.352 0-254.24c0-25.728 20.832-46.592 46.624-46.592l704.96 0c25.76 0 46.656 20.864 46.656 46.592l0.064 251.776-111.808 0.352z"  horiz-adv-x="1024" />

    
    <glyph glyph-name="daohang3dtouchsousuo" unicode="&#58928;" d="M958.5664-30.8224 730.7264 197.0176c133.2224 150.6304 128.3072 381.44-15.7696 525.5168C640 797.4912 541.696 834.8672 443.392 834.8672c-98.304 0-196.7104-37.376-271.5648-112.3328-149.7088-149.7088-149.7088-393.3184 0-543.0272C246.6816 104.6528 345.088 67.2768 443.392 67.2768c92.3648 0 184.4224 33.4848 257.3312 99.4304l227.6352-227.6352c7.8848-7.8848 20.8896-7.8848 28.7744 0l1.3312 1.3312C966.4512-51.6096 966.4512-38.7072 958.5664-30.8224zM202.0352 209.7152c-133.12 133.12-133.12 349.5936 0 482.7136 64.3072 64.3072 150.1184 99.84 241.3568 99.84 91.2384 0 177.0496-35.4304 241.3568-99.84 133.12-133.12 133.12-349.5936 0-482.7136-64.3072-64.3072-150.1184-99.84-241.3568-99.84C352.0512 109.8752 266.3424 145.3056 202.0352 209.7152z"  horiz-adv-x="1024" />

    
    <glyph glyph-name="buoumaotubiao23" unicode="&#58922;" d="M524.474182-128l-24.901818 0-6.958545 10.053818C481.652364-102.097455 223.837091 271.592727 187.485091 355.025455c-37.026909 84.968727-43.52 110.917818-43.52 173.428364C143.965091 731.136 308.852364 896 511.511273 896c203.682909 0 368.546909-164.864 368.546909-367.546182 0-62.533818-6.493091-88.459636-43.52-173.428364-36.375273-83.432727-294.144-457.099636-305.082182-472.971636L524.474182-128zM512.512 849.454545C334.498909 849.454545 190.510545 705.442909 190.510545 528.453818c0-56.064 4.817455-74.891636 39.656727-154.833455 29.090909-66.792727 220.485818-348.020364 281.856-437.620364C573.416727 25.6 764.741818 306.827636 793.832727 373.620364c34.839273 79.965091 39.656727 98.769455 39.656727 154.833455C833.489455 705.442909 689.501091 849.454545 512.512 849.454545zM512 330.635636c-93.835636 0-170.193455 76.334545-170.193455 170.193455S418.164364 670.999273 512 670.999273s170.193455-76.334545 170.193455-170.193455S605.835636 330.635636 512 330.635636zM512 624.453818c-68.189091 0-123.648-55.458909-123.648-123.648S443.810909 377.181091 512 377.181091s123.648 55.458909 123.648 123.648S580.189091 624.453818 512 624.453818z"  horiz-adv-x="1024" />

    
    <glyph glyph-name="chahao" unicode="&#58908;" d="M934.382936 71.653179c30.593785-30.650067 30.593785-80.31521-0.056282-110.965278-15.268752-15.325034-35.361369-22.989597-55.452963-22.989597-20.094664 0-40.187281 7.664563-55.512315 22.989597L510.214331 273.845181 197.066261-39.312098c-15.325034-15.325034-35.417651-22.989597-55.512315-22.989597-20.092617 0-40.184211 7.664563-55.452963 22.989597-30.650067 30.650067-30.650067 80.31521-0.056282 110.965278l313.177745 313.190025L86.044702 698.033229c-30.593785 30.650067-30.593785 80.31521 0.056282 110.965278 30.537504 30.652114 80.31521 30.652114 110.965278 0L510.214331 495.841228 823.361377 808.998507c30.650067 30.652114 80.427774 30.652114 110.965278 0 30.650067-30.650067 30.650067-80.31521 0.056282-110.965278L621.205191 384.843204 934.382936 71.653179z"  horiz-adv-x="1024" />

    
    <glyph glyph-name="erweima" unicode="&#59002;" d="M201.274096 686.919101 267.600711 686.919101 267.600711 620.592486 201.274096 620.592486 201.274096 686.919101ZM386.990868 806.307212 81.885985 806.307212l0-305.105906 119.388111 0 0-53.061496 66.326615 0 0 53.061496 119.389134 0 0 66.328661 53.061496 0 0 53.06252-53.061496 0L386.989845 806.307212 386.990868 806.307212 386.990868 806.307212zM320.66323 567.529967 148.2126 567.529967 148.2126 739.980597l172.45063 0L320.66323 567.529967 320.66323 567.529967zM201.274096 143.036973 267.600711 143.036973 267.600711 76.709335 201.274096 76.709335 201.274096 143.036973ZM745.156224 686.919101 811.483862 686.919101 811.483862 620.592486 745.156224 620.592486 745.156224 686.919101ZM506.378979 387.162016 506.378979 315.48658 572.706617 315.48658 572.706617 381.814218 625.76709 381.814218 625.76709 448.140833 572.706617 448.140833 572.706617 501.201306 506.378979 501.201306 506.378979 447.804165 506.378979 387.162016ZM506.378979 144.595468 506.378979 76.708312 572.706617 76.708312 572.706617 144.595468 572.706617 196.098469 625.76709 196.098469 625.76709 262.426107 570.660005 262.426107 506.378979 262.426107 506.378979 205.237617 506.378979 144.595468ZM572.706617 76.708312 625.76709 76.708312 625.76709 23.647839 572.706617 23.647839 572.706617 76.708312ZM440.052364 23.647839 440.052364-42.679799 510.017856-42.679799 572.706617-42.679799 572.706617 23.647839 510.017856 23.647839 440.052364 23.647839ZM692.094728 196.098469 625.76709 196.098469 625.76709 144.595468 625.76709 76.708312 691.942255 76.708312 745.156224 76.708312 745.156224 143.036973 692.094728 143.036973 692.094728 196.098469ZM745.156224-42.679799 813.227576-42.679799 873.868701-42.679799 930.872996-42.679799 930.872996 23.647839 873.868701 23.647839 811.484885 23.647839 811.484885 76.708312 745.156224 76.708312 745.156224 23.311171 745.156224-42.679799ZM930.872996 381.814218 930.872996 448.140833 873.868701 448.140833 811.484885 448.140833 811.484885 381.814218 873.868701 381.814218 930.872996 381.814218ZM864.545358 143.036973 930.872996 143.036973 930.872996 76.709335 864.545358 76.709335 864.545358 143.036973ZM440.052364 567.529967 506.378979 567.529967 506.378979 501.203352 440.052364 501.203352 440.052364 567.529967ZM745.156224 448.140833l0 53.061496 185.715749 0L930.871973 806.307212 625.76709 806.307212l0-66.326615-55.107085 0-64.281025 0 0-53.061496 64.281025 0 55.108109 0 0-66.326615-53.06252 0 0-53.06252 53.06252 0 0-66.326615 66.325591 0 0-53.061496 53.06252 0L745.156224 448.140833 745.156224 448.140833zM692.094728 739.980597 864.544335 739.980597l0-172.45063L692.094728 567.529967 692.094728 739.980597 692.094728 739.980597zM692.094728 315.48658 745.156224 315.48658 745.156224 262.426107 692.094728 262.426107 692.094728 315.48658ZM811.484885 196.098469 745.156224 196.098469 745.156224 143.036973 813.227576 143.036973 864.545358 143.036973 864.545358 205.237617 864.545358 262.426107 930.872996 262.426107 930.872996 315.48658 873.868701 315.48658 811.484885 315.48658 811.484885 265.878742 811.484885 196.098469ZM440.052364 686.919101 506.378979 686.919101 506.378979 620.592486 440.052364 620.592486 440.052364 686.919101ZM267.600711 381.814218 320.66323 381.814218 320.66323 315.48658 267.600711 315.48658 267.600711 381.814218ZM440.052364 448.140833 388.733559 448.140833 320.66323 448.140833 320.66323 381.814218 386.990868 381.814218 386.990868 315.48658 440.052364 315.48658 440.052364 387.162016 440.052364 448.140833ZM386.990868 76.708312 386.990868 196.098469l53.061496 0 0 66.326615-51.318806 0-187.459462 0 0 64.094784 0 55.293327-55.108109 0L81.885985 381.813195l0-66.326615 66.327638 0 0-53.061496L81.885985 262.425084l0-305.105906 305.105906 0 0 66.327638 53.061496 0 0 53.061496L386.990868 76.708312 386.990868 76.708312zM320.66323 23.647839 148.2126 23.647839 148.2126 196.098469l172.45063 0L320.66323 23.647839 320.66323 23.647839zM440.052364 315.48658 506.378979 315.48658 506.378979 262.426107 440.052364 262.426107 440.052364 315.48658ZM625.76709 381.814218 692.094728 381.814218 692.094728 315.48658 625.768113 315.48658 625.768113 381.814218 625.76709 381.814218ZM745.156224 381.814218 811.483862 381.814218 811.483862 315.48658 745.156224 315.48658 745.156224 381.814218Z"  horiz-adv-x="1024" />

    
    <glyph glyph-name="baojiadan1" unicode="&#59082;" d="M757.76-128a266.24 266.24 0 1 0 0 532.48 266.24 266.24 0 0 0 0-532.48z m0 470.976a204.8 204.8 0 1 1 0.064-409.536 204.8 204.8 0 0 1-0.064 409.536z m55.872-200.128h18.304c14.72 0 23.616 0.704 34.432 2.624v-37.376a177.728 177.728 0 0 1-34.432 2.624h-38.4l-10.816-17.024v-9.536h48.512c14.72 0 22.976 0.704 34.496 2.688v-37.376a184.512 184.512 0 0 1-34.496 2.56h-48.512v-22.336c0-18.624 0.704-28.8 2.624-41.856h-48.512c1.6 12.736 2.624 25.856 2.624 41.856v22.336h-49.472c-14.72 0-23.232-0.64-34.368-2.56v37.376c11.456-1.984 19.264-2.688 34.368-2.688h49.472v9.92l-10.816 16.704h-38.08c-15.04 0-23.232-0.64-34.368-2.624v37.376c10.816-1.92 19.328-2.624 34.368-2.624h18.368l-45.568 72.128a532.864 532.864 0 0 1-22.912 33.728h56.384c2.944-9.472 6.592-16.768 15.744-32.128l48.512-83.264 48.512 82.944c9.28 15.424 13.12 23.616 15.744 32.448h56.768a698.88 698.88 0 0 1-23.296-33.728l-45.184-72.192zM174.08 261.12h225.28a30.72 30.72 0 0 0 0-61.376H174.08a30.72 30.72 0 0 0 0 61.376z m-30.72 358.4a30.72 30.72 0 0 0 30.656 30.72h512a30.72 30.72 0 0 0 0-61.44h-512a30.72 30.72 0 0 0-30.656 30.72z m358.4-215.04H174.08a30.72 30.72 0 0 0-0.064 61.44h327.68a30.72 30.72 0 0 0 0.064-61.44z m327.68 61.44a30.464 30.464 0 0 0-28.672 20.48h-2.048V793.6a40.96 40.96 0 0 1-41.024 40.96H102.4a40.96 40.96 0 0 1-40.96-40.96v-798.72c0-22.656 18.368-40.96 40.96-40.96h368.64v-2.048c11.904-4.224 20.48-15.36 20.48-28.672s-8.64-24.448-20.48-28.608v-2.048H81.92A81.792 81.792 0 0 0 0-25.6V814.08C0 859.328 36.672 896 81.92 896h696.32a81.92 81.92 0 0 0 81.856-81.92V486.4h-1.984a30.528 30.528 0 0 0-28.672-20.48z"  horiz-adv-x="1024" />

    
    <glyph glyph-name="yiquxiao" unicode="&#58916;" d="M379.278 156.551c0 198.935 161.31 360.245 360.245 360.245 32.884 0 64.583-4.444 94.8-12.74V820.16C834.324 861.931 800.256 896 758.484 896H75.915C34.143 896 0.075 861.93 0.075 820.16v-796.33c0-41.772 34.068-75.841 75.84-75.841h369.872c-41.92 58.954-66.509 130.796-66.509 208.562zM189.676 744.318h455.046a37.804 37.804 0 0 0 37.92-37.92 37.804 37.804 0 0 0-37.92-37.92H189.676a37.804 37.804 0 0 0-37.92 37.92 37.804 37.804 0 0 0 37.92 37.92z m0-227.522h151.682c21.034 0 37.92-16.887 37.92-37.92s-16.886-37.921-37.92-37.921H189.676c-21.034 0-37.92 16.886-37.92 37.92s16.886 37.92 37.92 37.92z m75.841-303.364h-75.84a37.804 37.804 0 0 0-37.921 37.92 37.804 37.804 0 0 0 37.92 37.921h75.841a37.804 37.804 0 0 0 37.92-37.92 37.804 37.804 0 0 0-37.92-37.92zM739.375 441.103c-157.163 0-284.552-127.39-284.552-284.552S582.213-128 739.375-128s284.55 127.389 284.55 284.551-127.388 284.552-284.55 284.552z m125.611-372.39c10.369-10.37 10.369-27.256 0-37.773-5.184-5.184-11.998-7.85-18.812-7.85-6.814 0-13.628 2.666-18.812 7.85l-87.84 87.84-87.839-87.84c-5.184-5.184-11.998-7.85-18.812-7.85-6.813 0-13.627 2.666-18.812 7.85-10.369 10.369-10.369 27.255 0 37.772l87.84 87.84-87.84 87.839c-10.369 10.368-10.369 27.255 0 37.772 10.37 10.369 27.256 10.369 37.773 0l87.839-87.84 87.839 87.84c10.369 10.369 27.255 10.369 37.772 0 10.37-10.369 10.37-27.255 0-37.772l-87.839-87.84 87.543-87.839z"  horiz-adv-x="1024" />

    
    <glyph glyph-name="yongcan" unicode="&#58973;" d="M349.867 896C368.64 896 384 880.64 384 861.867v-238.934c-5.12-18.773 15.36-39.253 34.133-34.133 30.72-5.12 51.2 15.36 51.2 34.133v256C469.333 889.173 477.867 896 486.4 896h17.067c10.24 0 18.773-6.827 20.48-17.067 0 0 47.786-213.333 47.786-273.066 0-143.36-107.52-187.734-238.933-187.734S93.867 462.507 93.867 605.867c0 59.733 47.786 273.066 47.786 273.066C143.36 889.173 153.6 896 162.133 896H179.2c10.24 0 17.067-8.533 17.067-17.067v-256c0-18.773 20.48-39.253 51.2-34.133 18.773-5.12 39.253 15.36 34.133 34.133V861.867C281.6 880.64 296.96 896 315.733 896h34.134zM281.6 435.2H384l29.013-477.867C416.427-90.453 380.587-128 332.8-128c-47.787 0-83.627 37.547-80.213 85.333L281.6 435.2zM708.267 776.533v-819.2c0-37.546 29.013-68.266 68.266-68.266 34.134 0 64.854 30.72 68.267 68.266v256c47.787 5.12 85.333 52.907 85.333 102.4V409.6c0 61.44-6.826 160.427-15.36 220.16L913.067 640c-8.534 66.56-51.2 153.6-102.4 204.8L793.6 861.867C744.107 914.773 708.267 899.413 708.267 844.8v-68.267z"  horiz-adv-x="1024" />

    
    <glyph glyph-name="youjiantou" unicode="&#58931;" d="M264.896-114.112l497.728 497.728L264.128 882.112 218.88 836.864l453.248-453.248-452.48-452.48z"  horiz-adv-x="1024" />

    
    <glyph glyph-name="calendar" unicode="&#58888;" d="M832 746.667h-128v42.667c0 11.782-9.551 21.333-21.333 21.333s-21.333-9.551-21.333-21.333v-42.667h-298.667v42.667c-0 11.782-9.551 21.333-21.333 21.333s-21.333-9.551-21.333-21.333v-42.667h-128c-47.061 0-85.333-38.272-85.333-85.333v-597.333c0-47.061 38.272-85.333 85.333-85.333h640c47.061 0 85.333 38.272 85.333 85.333v597.333c0 47.061-38.272 85.333-85.333 85.333zM149.333 661.333c0 23.531 19.136 42.667 42.667 42.667h128v-42.667c0-11.782 9.551-21.333 21.333-21.333s21.333 9.551 21.333 21.333l0 42.667h298.667v-42.667c0-11.782 9.551-21.333 21.333-21.333s21.333 9.551 21.333 21.333v42.667h128c23.531 0 42.667-19.136 42.667-42.667v-128h-725.333v128zM874.667 64c0-23.531-19.136-42.667-42.667-42.667h-640c-23.531 0-42.667 19.136-42.667 42.667v426.667h725.333v-426.667zM320 362.667h42.667c11.782 0 21.333 9.551 21.333 21.333s-9.551 21.333-21.333 21.333l-42.667-0c-11.782 0-21.333-9.551-21.333-21.333s9.551-21.333 21.333-21.333zM661.333 362.667h42.667c11.782 0 21.333 9.551 21.333 21.333s-9.551 21.333-21.333 21.333l-42.667-0c-11.782 0-21.333-9.551-21.333-21.333s9.551-21.333 21.333-21.333zM490.667 362.667h42.667c11.782 0 21.333 9.551 21.333 21.333s-9.551 21.333-21.333 21.333l-42.667-0c-11.782 0-21.333-9.551-21.333-21.333s9.551-21.333 21.333-21.333zM320 234.667h42.667c0 0 0 0 0 0 11.782 0 21.333 9.551 21.333 21.333 0 11.782-9.551 21.333-21.333 21.333-0 0-0 0-0 0l-42.667-0c-0 0-0 0-0 0-11.782 0-21.333-9.551-21.333-21.333 0-11.782 9.551-21.333 21.333-21.333 0 0 0 0 0 0zM661.333 234.667h42.667c0 0 0 0 0 0 11.782 0 21.333 9.551 21.333 21.333 0 11.782-9.551 21.333-21.333 21.333-0 0-0 0-0 0l-42.667-0c-0 0-0 0-0 0-11.782 0-21.333-9.551-21.333-21.333 0-11.782 9.551-21.333 21.333-21.333 0 0 0 0 0 0zM490.667 234.667h42.667c0 0 0 0 0 0 11.782 0 21.333 9.551 21.333 21.333 0 11.782-9.551 21.333-21.333 21.333-0 0-0 0-0 0l-42.667-0c-0 0-0 0-0 0-11.782 0-21.333-9.551-21.333-21.333 0-11.782 9.551-21.333 21.333-21.333 0 0 0 0 0 0zM320 106.667h42.667c0 0 0 0 0 0 11.782 0 21.333 9.551 21.333 21.333 0 11.782-9.551 21.333-21.333 21.333-0 0-0 0-0 0l-42.667-0c-0 0-0 0-0 0-11.782 0-21.333-9.551-21.333-21.333 0-11.782 9.551-21.333 21.333-21.333 0 0 0 0 0 0zM661.333 106.667h42.667c0 0 0 0 0 0 11.782 0 21.333 9.551 21.333 21.333 0 11.782-9.551 21.333-21.333 21.333-0 0-0 0-0 0l-42.667-0c-0 0-0 0-0 0-11.782 0-21.333-9.551-21.333-21.333 0-11.782 9.551-21.333 21.333-21.333 0 0 0 0 0 0zM490.667 106.667h42.667c0 0 0 0 0 0 11.782 0 21.333 9.551 21.333 21.333 0 11.782-9.551 21.333-21.333 21.333-0 0-0 0-0 0l-42.667-0c-0 0-0 0-0 0-11.782 0-21.333-9.551-21.333-21.333 0-11.782 9.551-21.333 21.333-21.333 0 0 0 0 0 0z"  horiz-adv-x="1024" />

    
    <glyph glyph-name="star" unicode="&#58945;" d="M711.92381 296.228571l117.028571-370.590476-316.952381 224.304762-312.07619-224.304762 121.904761 365.714286L0 525.409524h394.971429L516.87619 852.114286 633.904762 525.409524h390.095238l-312.07619-229.180953z"  horiz-adv-x="1024" />

    
    <glyph glyph-name="huidingbu" unicode="&#59026;" d="M153.979 721.996h718.833c16.142 0 29.127 12.986 29.127 29.127s-12.986 29.127-29.127 29.127h-718.833c-16.142 0-29.127-12.986-29.127-29.127s12.986-29.127 29.127-29.127zM533.845 649.299c-11.408 11.408-29.855 11.408-41.142 0l-351.952-351.952c-11.408-11.408-11.408-29.855 0-41.142 5.703-5.703 13.107-8.496 20.631-8.496s14.928 2.791 20.631 8.496l302.194 302.194v-542.614c0-16.142 12.986-29.127 29.127-29.127s29.127 12.986 29.127 29.127v542.614l302.194-302.194c5.703-5.703 13.107-8.496 20.631-8.496s14.928 2.791 20.631 8.496c11.408 11.408 11.408 29.855 0 41.142l-352.074 351.952z"  horiz-adv-x="1024" />

    
    <glyph glyph-name="bed" unicode="&#59021;" d="M1355.052425 370.173509V833.121594A63.282884 63.282884 0 0 1 1292.998335 895.99488H140.696897a62.463688 62.463688 0 0 1-63.282884-62.873286v-464.279278a313.752031 313.752031 0 0 1-39.9358-64.511678C12.492738 250.980505 0 187.185624 0 114.789186v-221.694891c0-5.222374 2.150389-10.239949 6.143969-14.02873 3.788781-3.686382 9.113554-5.836771 14.643127-5.836771h139.775301a20.275099 20.275099 0 0 1 20.684697 19.865501v78.028409h1069.460252v-78.028409c0-5.222374 2.04799-10.239949 6.04157-14.02873 3.891181-3.686382 9.215954-5.836771 14.643127-5.836771h139.775301a20.275099 20.275099 0 0 1 20.787096 19.865501l0.409598 201.93179v19.763101c0 72.396438-12.287939 136.191319-36.659017 189.234254a312.625637 312.625637 0 0 1-40.652596 66.04767zM150.220049 798.203369c0 12.697537 8.703956 21.196694 21.811091 21.196694L1259.513702 817.96647c12.902335 0 20.479898-10.751946 20.479898-21.094294l1.638392-375.191724a321.124794 321.124794 0 0 1-5.119975 4.300778c-14.02873 10.956745-35.327823 21.708691-49.97095 29.695852l-1.535992 61.439692c0 82.533987-36.863816 117.759411-122.879386 117.759412H819.195904c-50.175749 0-83.762781-11.775941-103.116284-37.375814-19.353503 25.599872-52.838136 37.375813-103.013885 37.375814H323.684782c-86.117969 0-116.223419-35.225424-116.223419-117.759412l-2.867186-61.439692c-12.595137-6.963165-36.863816-23.96148-51.199744-33.279834h-4.505577l1.331193 375.806121z m1019.8989-324.196779a273.304233 273.304233 0 0 1-90.316348 17.817511H748.130659v16.383918c0 59.698902 18.431908 66.252469 82.329189 66.252469h258.251508c63.078085 0 81.407593-6.758366 81.407593-67.378863v-33.075035zM681.98059 493.97449H341.809491c-19.660702 0-41.98379-4.710376-79.462003-18.636707v29.695852c0 60.415698 9.318353 69.426853 72.498838 69.426853H602.108989c63.897281 0 80.0764-8.703956 80.0764-68.505258v-11.98074z m-372.734136-78.745206l401.815591 10.751946c107.621862 0 408.164359-10.751946 408.164359-10.751946 74.546827-6.143969 108.133859-35.839821 130.661747-55.295724 68.607657-59.084505 86.01557-91.852341 103.423482-204.389378H80.588397c0 87.551562 68.812456 174.386328 76.287619 182.987885 49.049355 57.650912 94.924325 70.450848 152.575237 76.799616z m1003.310183-471.037645l-2.662386 72.498838a20.275099 20.275099 0 0 1-20.684697 19.8655H140.287299a21.196694 21.196694 0 0 1-14.643127-5.836771 19.455903 19.455903 0 0 1-6.14397-14.028729l1.023995-72.601237H75.775621L74.956425 95.230884h1284.703977l2.252788-151.039245h-49.151754z"  horiz-adv-x="1433" />

    
    <glyph glyph-name="zuanshi1" unicode="&#58894;" d="M1001.472 594.944L783.36 812.032c-8.192 8.192-18.432 12.288-29.696 12.288H270.336c-11.264 0-21.504-4.096-29.696-12.288L22.528 594.944c-8.192-8.192-12.288-18.432-12.288-29.696v-86.016c0-10.24 4.096-20.48 10.24-27.648l460.8-515.072c16.384-18.432 45.056-18.432 61.44 0l460.8 515.072c7.168 7.168 10.24 17.408 10.24 27.648v86.016c0 11.264-4.096 21.504-12.288 29.696z m-70.656-128L512-2.048 93.184 466.944v99.328l202.752 201.728h433.152L931.84 566.272v-99.328zM295.936 769.024L93.184 567.296v-99.328L512-2.048l418.816 468.992v99.328L728.064 769.024H295.936z m216.064-614.4L200.704 570.368h184.32l-14.336-38.912L512 338.944l141.312 191.488-14.336 38.912h184.32L512 154.624zM653.312 531.456L512 338.944 370.688 531.456l14.336 38.912h-184.32L512 155.648v-1.024l311.296 414.72h-184.32z"  horiz-adv-x="1024" />

    
    <glyph glyph-name="dichanzhongjie-" unicode="&#59146;" d="M902.326 232.128c-29.002 34.577-74.126 52.485-137.955 54.772-46.273 1.65-79.587 17.556-98.987 47.275-17.351 26.556-17.34 54.886-15.577 63.237 32.21 27.682 45.511 71.385 49.778 89.020 28.228 21.731 41.927 44.635 40.755 68.164-1.046 20.935-13.494 35.852-23.291 44.442 6.087 31.732 16.145 115.644-31.449 176.674-34.975 44.839-92.513 66.901-171.008 65.558-79.645-1.365-136.863-25.418-169.996-71.498-44.805-62.362-30.22-144.635-23.211-173.227-12.345-16.93-13.961-33.223-12.857-44.566 2.799-28.877 24.622-51.268 36.409-61.44 5.985-44.817 43.702-80.167 57.697-91.899 7.327-26.169 7.225-45.204-0.285-58.027-14.37-24.53-60.041-34.531-117.908-47.195-17.226-3.777-35.043-7.668-54.067-12.356-60.416-14.882-100.842-61.281-116.929-134.178-11.571-52.451-6.417-100.125-6.19-102.173l1.195-10.661 9.796-4.381c5.689-2.572 142.382-63.056 321.889-82.022 31.125-3.518 67.207-5.526 103.759-5.531 120.748 0.001 217.732 23.894 277.568 43.931 65.388 21.902 101.615 43.815 103.129 44.737l7.578 4.63 1.229 8.795c12.379 88.166 2.503 147.888-31.073 187.916zM475.865-17.83l43.122 165.866-8.818 63.92 22.528 13.255 24.11-13.392-11.003-65.991 43.486-164.852c-15.133-0.797-30.72-1.241-46.831-1.241-21.721-0.057-44.010 0.797-66.594 2.435zM897.422 58.584c-13.369-7.168-44.089-22.346-89.202-37.364-42.291-14.075-104.107-30.151-180.827-37.547l-43.235 163.84 14.041 84.195-66.060 36.705-62.578-36.842 11.218-81.351-42.826-164.557c-143.201 16.020-259.777 60.006-294.081 73.955-0.739 15.929-0.865 47.309 6.474 80.009 13.085 58.3 43.042 93.605 89.042 104.938 18.546 4.551 36.113 8.419 53.111 12.14 66.845 14.631 119.637 26.169 142.279 64.956 13.653 23.313 14.324 53.897 2.162 93.491l-1.821 5.859-4.881 3.664c-0.466 0.353-47.172 35.886-48.515 76.174l-0.261 9.238-7.543 5.393c-7.236 5.234-26.363 22.676-28.001 40.197-0.751 8.021 2.458 15.701 9.808 23.484l7.6 8.044-3.345 10.547c-0.285 0.899-27.921 90.237 15.109 150.107 25.817 35.92 72.965 54.716 140.129 55.865 65.991 1.138 113.3-16.020 140.629-50.961 47.047-60.143 22.335-155.716 22.084-156.638l-3.766-13.983 12.515-7.202c0.159-0.091 15.451-9.614 16.077-22.209 0.558-11.196-10.457-25.452-31.015-40.129l-6.144-4.494-1.343-7.543c-0.091-0.512-9.421-51.132-40.823-76.231-15.86-12.743-14.393-49.971-4.927-78.597 10.463-31.537 31.412-57.213 58.63-73.485 11.775-10.473 45.419-21.44 85.89-22.885 52.588-1.877 88.747-15.406 110.512-41.37 24.827-29.65 32.666-78.575 23.882-149.413z"  horiz-adv-x="1024" />

    
    <glyph glyph-name="warming" unicode="&#59136;" d="M512.3 149.9c-10.8 0-19.5 8.7-19.5 19.5v58.4c0 10.8 8.7 19.5 19.5 19.5s19.5-8.7 19.5-19.5v-58.4c0-10.8-8.7-19.5-19.5-19.5zM512.3 305.8c-10.8 0-19.5 8.7-19.5 19.5v331.1c0 10.8 8.7 19.5 19.5 19.5s19.5-8.7 19.5-19.5v-331.2c0-10.7-8.7-19.4-19.5-19.4zM512.3 792.8c225.6 0 409.1-183.5 409.1-409.1s-183.5-409.1-409.1-409.1-409.1 183.5-409.1 409.1c0 225.6 183.5 409.1 409.1 409.1M512.3 831.8c-247.5 0-448.1-200.6-448.1-448.1s200.6-448.1 448.1-448.1c247.5 0 448.1 200.6 448.1 448.1 0 247.5-200.7 448.1-448.1 448.1z"  horiz-adv-x="1024" />

    
    <glyph glyph-name="zhengfu" unicode="&#59025;" d="M900.79744 52.35712h-57.82016v47.9744H203.65312v-47.9744H147.6864v-46.13632h-42.83392v-48.03072h836.97664v48.03072h-41.03168v46.13632z m-559.20128 86.784V379.2384h27.9552v31.5648c0 19.29216-15.76448 34.93888-35.27168 34.93888H210.90816c-19.47648 0-35.24096-15.64672-35.24096-34.93888v-31.5648h29.83936v-240.09728h136.0896z m501.38112 0V379.2384h29.80864v31.50848c0 19.29216-15.76448 34.93888-35.21024 34.93888h-123.3152c-19.47648 0-35.21536-15.64672-35.21536-34.93888v-31.53408h29.80864v-240.07168h134.12352z m-251.64288 0V379.2384h29.83936v31.5648c0 19.29216-15.76448 34.93888-35.21536 34.93888H462.58688c-19.47648 0-35.24096-15.64672-35.24096-34.93888v-31.5648h27.9296v-240.09728h136.05888z m332.26752 429.50144l-370.83648 203.1872a67.10784 67.10784 0 0 1-64.49664 0l-370.78016-203.2128c-23.9104-13.09184-38.7328-38.01088-38.7328-65.0752v-22.784H962.304v22.784c0.00512 27.06432-14.8224 52.00896-38.70208 65.1008z m-254.94016 17.81248a7.99232 7.99232 0 0 0-7.78752-5.98528H379.91424a7.99744 7.99744 0 0 0-7.78752 5.98528c-0.91136 3.51232 0.6656 7.2192 3.90656 8.97536l112.04096 61.50656a67.328 67.328 0 0 0 64.60928 0l112.01536-61.50656c3.23584-1.75616 4.86912-5.43232 3.96288-8.97536z"  horiz-adv-x="1024" />

    
    <glyph glyph-name="zan" unicode="&#58913;" d="M556.251429 745.22819h-2.048c-42.422857 0-79.676952-36.035048-79.676953-77.141333v-19.846095c0-86.332952-57.465905-153.404952-137.581714-166.253714V50.468571h370.761143c34.718476 0 65.487238 23.844571 74.703238 57.758477l82.773333 289.03619a79.213714 79.213714 0 0 1-13.043809 69.193143 75.897905 75.897905 0 0 1-60.952381 30.817524h-163.718096c5.583238 12.263619 8.94781 24.502857 9.70362 31.427047l2.535619 10.678858a248.100571 248.100571 0 0 1-5.705143 139.434666l-5.046857 13.945905a77.482667 77.482667 0 0 1-72.704 52.467809zM297.447619 479.597714H233.20381c-41.22819 0-77.433905-38.570667-77.433905-82.505143v-269.190095a77.531429 77.531429 0 0 1 77.433905-77.458286H297.447619V479.597714z"  horiz-adv-x="1024" />

    
    <glyph glyph-name="add_pic" unicode="&#58910;" d="M409.842 562.572c0 37.343-30.162 67.626-67.45 67.626-37.226 0-67.417-30.282-67.417-67.626 0-37.387 30.191-67.645 67.417-67.645 37.288 0.001 67.45 30.258 67.45 67.645zM516.362 176.912c20.304 37.333 59.278 62.948 104.676 62.948h47.89v48.048c0 49.003 29.331 91.030 71.315 109.714v2.209h0.067l-60.972 184.817-212.917-275.556-57.070 96.961-226.4-229.14h333.411zM515.996 44.067v0.006h-331.020c-24.722 0-44.933 20.307-44.933 45.089v631.31c0 24.806 20.21 45.107 44.934 45.107h629.356c24.723 0 44.932-20.3 44.932-45.107v-320.646h0.017c0-0.239-0.017-0.477-0.017-0.721 0-24.911 20.149-45.089 44.966-45.089 24.818 0 44.966 20.179 44.966 45.089 0 0.245-0.017 0.482-0.017 0.721h0.017v365.754c0 49.607-40.485 90.187-89.933 90.187h-719.221c-49.454 0-89.934-40.58-89.934-90.187v-721.507c0-49.608 40.48-90.187 89.934-90.187l375.953 0.006c24.73 0.1 44.778 20.256 44.778 45.089 0 24.847-20.049 44.986-44.778 45.086zM948.706 160.23h-112.353v112.717c0 24.911-20.154 45.106-44.966 45.106-24.817 0-44.972-20.196-44.972-45.106v-112.717h-112.355c-24.812 0-44.961-20.2-44.961-45.107 0-24.895 20.149-45.089 44.961-45.089h112.356v-112.738c0-24.896 20.155-45.092 44.972-45.092 24.813 0 44.966 20.196 44.966 45.092v112.738h112.351c24.851 0 44.966 20.19 44.966 45.090 0 24.906-20.114 45.106-44.966 45.106z"  horiz-adv-x="1024" />

    
    <glyph glyph-name="xinzeng" unicode="&#59087;" d="M832 608h-96V704c0 19.2-12.8 32-32 32s-32-12.8-32-32v-96H576c-19.2 0-32-12.8-32-32s12.8-32 32-32h96V448c0-19.2 12.8-32 32-32s32 12.8 32 32V544H832c19.2 0 32 12.8 32 32s-12.8 32-32 32zM774.4 32H249.6c-51.2 0-89.6 38.4-89.6 89.6V646.4c0 51.2 38.4 89.6 89.6 89.6h275.2c19.2 0 32-12.8 32-32s-12.8-32-32-32H249.6c-12.8 0-25.6-12.8-25.6-25.6V128c0-12.8 12.8-25.6 25.6-25.6H768c12.8 0 25.6 12.8 25.6 25.6V396.8c0 19.2 12.8 32 32 32s32-12.8 32-32v-275.2c6.4-51.2-32-89.6-83.2-89.6z"  horiz-adv-x="1024" />

    
    <glyph glyph-name="dianji" unicode="&#59343;" d="M314.660571 558.372571c-9.801143 0-19.017143 5.12-24.137142 13.458286-42.861714 70.070857-20.626286 161.645714 49.444571 204.507429s161.645714 20.626286 204.507429-49.444572c28.818286-47.104 29.110857-106.349714 0.731428-153.892571-7.753143-13.604571-25.014857-18.285714-38.619428-10.386286-13.604571 7.753143-18.285714 25.014857-10.386286 38.619429 0.146286 0.292571 0.292571 0.585143 0.585143 0.877714 26.185143 43.739429 11.849143 100.352-31.890286 126.537143-43.739429 26.185143-100.352 11.849143-126.537143-31.890286-17.554286-29.403429-17.408-66.121143 0.438857-95.378286 8.192-13.312 3.949714-30.72-9.362285-38.912-4.388571-2.633143-9.508571-4.096-14.774858-4.096zM727.478857 456.557714c-24.576 0-44.617143-23.552-44.617143-52.516571V322.413714c0-3.949714-3.218286-7.021714-7.021714-7.021714-3.949714 0-7.021714 3.218286-7.021714 7.021714v117.613715c0 28.964571-20.041143 52.516571-44.617143 52.516571s-44.617143-23.552-44.617143-52.516571v-93.037715c0-3.949714-3.218286-7.021714-7.021714-7.021714-3.949714 0-7.021714 3.218286-7.021715 7.021714v139.410286c0 28.964571-20.041143 52.516571-44.617142 52.516571s-44.617143-23.552-44.617143-52.516571v-106.788571c0-3.949714-3.218286-7.021714-7.021715-7.021715-3.949714 0-7.021714 3.218286-7.021714 7.021715V636.342857c0 24.576-20.041143 44.470857-44.617143 44.617143h-1.316571c-23.844571-0.731429-43.300571-21.065143-43.300572-45.348571v-355.766858c0-3.949714-3.218286-7.021714-7.168-7.021714h-0.146285c-2.048 0-3.949714 0.877714-5.266286 2.486857l-70.948571 81.773715c-8.338286 9.654857-19.456 14.921143-31.158858 14.921142s-22.820571-5.266286-31.158857-14.921142c-17.700571-20.333714-17.700571-54.710857 0-75.044572l74.020572-85.430857c19.309714-22.235429 36.425143-43.446857 51.638857-62.171429 34.669714-42.715429 62.025143-76.507429 94.646857-99.913142 34.816-24.868571 73.289143-35.986286 124.928-35.986286 65.682286 0 116.297143 16.384 150.381714 48.859428 32.621714 31.158857 49.298286 76.068571 49.298286 133.705143V404.041143c0 28.818286-19.894857 52.516571-44.617143 52.516571z"  horiz-adv-x="1024" />

    
    <glyph glyph-name="zanshi" unicode="&#58884;" d="M648.020 692.965l38.996 42.407 57.457 4.789-42.43 39.017-4.766 57.436-39.042-42.432-57.459-4.764 42.43-39.018zM343.383 668.532l11.443 44.837 38.799 25.246-44.839 11.441-25.292 38.847-11.441-44.886-38.8-25.245 44.837-11.442zM482.809 821.954l6.384 25.147 21.757 14.142-25.146 6.434-14.141 21.732-6.434-25.121-21.758-14.168 25.149-6.411zM501.481-121.269l-475.183 520.819 191.432 237.945h567.323l202.267-237.413-485.839-521.351zM73.687 401.023l428.074-469.186 437.352 469.318-170.683 200.34h-533.459l-161.284-200.472zM519.621-118.468l-262.596 517.842 102.299 238.121h160.297v-755.963zM296.749 400.637l186.873-368.514v569.372h-100.582l-86.291-200.858zM524.4-71.139l-33.33 13.606 186.962 458.021-74.744 213.048 33.971 11.918 79.263-225.931zM52.254 421.084h910.962v-36h-910.962z"  horiz-adv-x="1024" />

    
    <glyph glyph-name="bookmark-add" unicode="&#58923;" d="M870.39702-127.996027a51.199801 51.199801 0 0 0-25.395101 6.758374L511.998411 69.041289 178.994903-121.258133A51.199801 51.199801 0 0 0 102.4-76.796226V844.800199A51.199801 51.199801 0 0 0 153.599801 896h716.797219a51.199801 51.199801 0 0 0 51.199802-51.199801v-921.596425a51.199801 51.199801 0 0 0-51.199802-51.199801zM511.998411 179.202781a51.199801 51.199801 0 0 0 25.395101-6.758374L819.197219 11.451752V793.600397H204.799603v-782.148645l281.803706 160.992655A51.199801 51.199801 0 0 0 511.998411 179.202781zM716.797616 537.601391h-153.599404v153.599404h-102.399603v-153.599404h-153.599404v-102.399603h153.599404v-153.599404h102.399603v153.599404h153.599404v102.399603z"  horiz-adv-x="1024" />

    
    <glyph glyph-name="tubiaozhizuomoban" unicode="&#58897;" d="M615.206 436.763v-544.198h394.081V436.763H615.206z m150.119-450.357c0-10.346-8.399-18.783-18.784-18.783H709.05c-10.384 0-18.784 8.438-18.784 18.783v18.746c0 10.384 8.4 18.784 18.784 18.784h37.491c10.385 0 18.784-8.4 18.784-18.784v-18.746z m0 112.59c0-10.346-8.399-18.745-18.784-18.745H709.05c-10.384 0-18.784 8.399-18.784 18.745v18.783c0 10.346 8.4 18.746 18.784 18.746h37.491c10.385 0 18.784-8.4 18.784-18.746v-18.783z m0 112.588c0-10.346-8.399-18.745-18.784-18.745H709.05c-10.384 0-18.784 8.399-18.784 18.745v18.785c0 10.346 8.4 18.746 18.784 18.746h37.491c10.385 0 18.784-8.4 18.784-18.746v-18.785z m0 112.59c0-10.347-8.399-18.745-18.784-18.745H709.05c-10.384 0-18.784 8.398-18.784 18.745v18.783c0 10.348 8.4 18.746 18.784 18.746h37.491c10.385 0 18.784-8.398 18.784-18.746v-18.783z m168.904-337.768c0-10.346-8.399-18.783-18.785-18.783h-56.275c-10.385 0-18.783 8.438-18.783 18.783v18.746c0 10.384 8.398 18.784 18.783 18.784h56.275c10.386 0 18.785-8.4 18.785-18.784v-18.746z m0 112.59c0-10.346-8.399-18.745-18.785-18.745h-56.275c-10.385 0-18.783 8.399-18.783 18.745v18.783c0 10.346 8.398 18.746 18.783 18.746h56.275c10.386 0 18.785-8.4 18.785-18.746v-18.783z m0 112.588c0-10.346-8.399-18.745-18.785-18.745h-56.275c-10.385 0-18.783 8.399-18.783 18.745v18.785c0 10.346 8.398 18.746 18.783 18.746h56.275c10.386 0 18.785-8.4 18.785-18.746v-18.785z m0 112.59c0-10.347-8.399-18.745-18.785-18.745h-56.275c-10.385 0-18.783 8.398-18.783 18.745v18.783c0 10.348 8.398 18.746 18.783 18.746h56.275c10.386 0 18.785-8.398 18.785-18.746v-18.783z m-919.516-431.61h562.964v863.22H14.713v-863.22z m356.532 750.63c0 10.385 8.419 18.784 18.784 18.784h75.06c10.366 0 18.766-8.399 18.766-18.784v-75.059c0-10.347-8.4-18.747-18.766-18.747h-75.06c-10.365 0-18.784 8.4-18.784 18.747v75.059zM352.48 455.547c0 10.346 8.417 18.745 18.764 18.745h93.843c10.366 0 18.766-8.399 18.766-18.745v-75.06c0-10.384-8.4-18.784-18.766-18.784h-93.843c-10.347 0-18.764 8.4-18.764 18.784v75.06z m0-168.903c0 10.385 8.417 18.785 18.764 18.785h93.843c10.366 0 18.766-8.4 18.766-18.785v-75.06c0-10.346-8.4-18.745-18.766-18.745h-93.843c-10.347 0-18.764 8.399-18.764 18.745v75.06z m0-206.393c0 10.346 8.417 18.745 18.764 18.745h93.843c10.366 0 18.766-8.399 18.766-18.745v-75.099c0-10.346-8.4-18.746-18.766-18.746h-93.843c-10.347 0-18.764 8.4-18.764 18.746v75.099zM127.302 643.194c0 10.385 8.399 18.784 18.766 18.784h93.824c10.365 0 18.764-8.399 18.764-18.784v-75.059c0-10.347-8.399-18.747-18.764-18.747h-93.824c-10.366 0-18.766 8.4-18.766 18.747v75.059z m0-187.647c0 10.346 8.399 18.745 18.766 18.745h93.824c10.365 0 18.764-8.399 18.764-18.745v-75.06c0-10.384-8.399-18.784-18.764-18.784h-93.824c-10.366 0-18.766 8.4-18.766 18.784v75.06z m0-168.903c0 10.385 8.399 18.785 18.766 18.785h93.824c10.365 0 18.764-8.4 18.764-18.785v-75.06c0-10.346-8.399-18.745-18.764-18.745h-93.824c-10.366 0-18.766 8.399-18.766 18.745v75.06z m0-206.393c0 10.346 8.399 18.745 18.766 18.745h93.824c10.365 0 18.764-8.399 18.764-18.745v-75.099c0-10.346-8.399-18.746-18.764-18.746h-93.824c-10.366 0-18.766 8.4-18.766 18.746v75.099z"  horiz-adv-x="1024" />

    
    <glyph glyph-name="ditie1" unicode="&#59775;" d="M512 817.778c-201.159 0-364.089-22.755-364.089-182.045v-432.355c0-87.837 71.453-159.289 159.289-159.289l-68.267-68.267v-22.755h546.133v22.755l-68.267 68.267c87.837 0 159.289 71.453 159.289 159.289v432.355c0 159.289-162.93 182.045-364.089 182.045zM307.2 135.112c-37.774 0-68.267 30.493-68.267 68.267s30.493 68.267 68.267 68.267 68.267-30.493 68.267-68.267-30.493-68.267-68.267-68.267zM466.489 408.178h-227.555v227.555h227.555v-227.555zM716.8 135.112c-37.774 0-68.267 30.493-68.267 68.267s30.493 68.267 68.267 68.267 68.267-30.493 68.267-68.267-30.493-68.267-68.267-68.267zM785.067 408.178h-227.555v227.555h227.555v-227.555z"  horiz-adv-x="1024" />

    
    <glyph glyph-name="niantie" unicode="&#58926;" d="M730-104H292.6v97.2H146.8v826H244V722H195.4v-680.4h97.2v486h534.6V722.2h-48.6V819.2h97.2v-291.6h48.6V90.2L730-104z m145.8 583.2H341V-55.6h340.2v194.4H875.8V479.2zM730 90.4v-145.8l145.8 145.8H730zM438.4 382h340.2v-97.2H438.4V382z m145.8-291.6h-145.8v97.2h145.8v-97.2zM292.6 770.8h97.2V868h243v-97.4H730v-97.2H292.6V770.8z m145.8 0h145.8V819.2h-145.8v-48.4z"  horiz-adv-x="1024" />

    
    <glyph glyph-name="APPshangquan_s_s__fcbeffeaece" unicode="&#58890;" d="M349.249671 867.114841C112.761406 783.411885-41.851478 523.347896 10.051665 275.71142c56.837597-271.394957 331.522189-429.480234 596.886147-400.239027 141.271583 15.534391 267.374291 114.954497 343.584187 230.822782 135.971615 206.33327 78.95126 492.166073-96.130469 657.196137-134.875069 126.833737-330.791159 165.39558-505.141859 103.623529z m140.357796-325.308433c-58.299657-6.579272-72.006473-78.585745-10.782695-95.216682 64.330656-17.544724 139.444008-15.899907 190.981636-65.427201 32.348086-31.25154 36.368752-84.251229 28.32742-126.468223-8.041332-41.851478-33.627389-72.737504-72.189231-89.916712-4.751696-2.010333-78.402987-23.027451-78.402988-20.103331v-60.30999h-71.4582v57.934142c-171.792094 24.489511-156.074945 165.030065-156.074945 165.030065h93.754621c-8.406847 0 8.406847-40.023903 10.965453-43.679054 40.93769-58.482415 122.813071-55.558294 171.243821-12.427513 54.827264 48.796265-25.951572 77.671957-65.061686 87.723622-27.59639 7.127544-54.644506 13.524058-81.327109 23.941239-12.061998 4.751696-28.144662 16.448179-40.389417 18.092997-46.785932 6.762029-102.526984 91.378773-55.741052 165.030065s129.392343 75.844382 129.392343 75.844381v51.354871H551.92779v-48.979023c144.926734-31.25154 138.347463-144.926734 138.347463-144.926734h-84.799501c-17.727482 73.651291-115.868284 62.503081-115.868285 62.503081z"  horiz-adv-x="1026" />

    
    <glyph glyph-name="fanye" unicode="&#59048;" d="M746.024 18.166v731.48c0 16.766 13.721 30.487 30.487 30.487s30.486-13.721 30.486-30.487v-731.48c0-16.766-13.72-30.487-30.486-30.487s-30.487 13.721-30.487 30.487zM259.526 822.104l416.64-416.668c11.848-11.848 11.848-31.24 0-43.089L259.526-54.32c-11.848-11.848-31.241-11.848-43.089 0-11.849 11.848-11.849 31.241 0 43.089l395.067 395.123-395.096 395.095c-11.848 11.849-11.848 31.241 0 43.089 11.849 11.876 31.241 11.876 43.118 0.028z"  horiz-adv-x="1024" />

    
    <glyph glyph-name="aixin-copy-copy" unicode="&#58912;" d="M993.882 537.6v12.047c-9.035 135.529-117.459 240.941-256 240.941-96.376 0-183.718-54.212-225.882-135.529-42.165 81.318-129.506 135.529-225.882 135.529-135.529 3.012-246.965-105.412-256-237.929v-30.118c0-6.024 0-9.035 3.012-15.059 48.188-246.965 478.871-533.082 478.871-533.082s427.671 283.106 475.859 530.071c3.012 9.035 6.024 21.082 6.024 33.129z"  horiz-adv-x="1024" />

    
    <glyph glyph-name="huangguan" unicode="&#58972;" d="M119.798994 650.543069A59.898925 59.898925 0 1 0 59.900069 710.15608a59.898925 59.898925 0 0 0 59.898925-59.898925zM770.395671 836.101075A59.898925 59.898925 0 1 0 710.496746 896a59.898925 59.898925 0 0 0 59.898925-59.898925zM1415.274074 650.543069A59.898925 59.898925 0 1 0 1354.946279 710.15608 59.898925 59.898925 0 0 0 1415.274074 650.543069zM119.798994 574.347061l83.34385-533.229094h986.402346l105.502164 533.229094L999.269607 384.786263 710.496746 733.886919 416.863352 400.511518 119.798994 574.347061zM1194.119809-86.828424a41.171576 41.171576 0 0 0-41.171576-41.171576H244.31442a41.171576 41.171576 0 0 0-41.171576 41.171576 41.171576 41.171576 0 0 0 41.171576 41.171576h908.77677a41.171576 41.171576 0 0 0 41.171576-41.171576z"  horiz-adv-x="1415" />

    
    </font>
</defs>
</svg>
